<?xml version="1.0" encoding="utf-8"?>
<!-- Generator: Adobe Illustrator 21.1.0, SVG Export Plug-In . SVG Version: 6.00 Build 0)  -->
<svg version="1.1" id="Capa_1" xmlns="http://www.w3.org/2000/svg" xmlns:xlink="http://www.w3.org/1999/xlink" x="0px" y="0px"
	 viewBox="0 0 512 512" style="enable-background:new 0 0 512 512;" xml:space="preserve">
<style type="text/css">
	.st0{fill:#FFFFFF;}
</style>
<g>
	<g>
		<path class="st0" d="M503.5,0H230.4c-4.7,0-8.5,3.8-8.5,8.5v128H239V17.1h256v290.1H299.9v17.1h203.6c4.7,0,8.5-3.8,8.5-8.5V8.5
			C512,3.8,508.2,0,503.5,0z"/>
	</g>
</g>
<g>
	<g>
		<path class="st0" d="M290.1,306.9v170.9c0,9.4-7.7,17.1-17.1,17.1H34.1c-9.4,0-17.1-7.7-17.1-17.1V162.1c0-9.4,7.7-17.1,17.1-17.1
			H128v-17H34.1C15.3,128,0,143.3,0,162.1v315.7C0,496.7,15.3,512,34.1,512H273c18.8,0,34.1-15.3,34.1-34.1v-171H290.1z"/>
	</g>
</g>
<g>
	<g>
		<path class="st0" d="M273.1,128h-93.9v17.1h93.9c9.4,0,17.1,7.7,17.1,17.1v153.6h17.1V162.1C307.2,143.3,291.9,128,273.1,128z"/>
	</g>
</g>
<g>
	<g>
		<path class="st0" d="M256,341.1v119.7H51.2V179.2h34.1v-17.1H42.7c-4.7,0-8.5,3.8-8.5,8.5v298.7c0,4.7,3.8,8.5,8.5,8.5h221.9
			c4.7,0,8.5-3.8,8.5-8.5V341.1H256L256,341.1z"/>
	</g>
</g>
<g>
	<g>
		<path class="st0" d="M264.5,162.1h-42.7v17.1H256v170.7h17.1V170.7C273.1,166,269.3,162.1,264.5,162.1z"/>
	</g>
</g>
<g>
	<g>
		<path class="st0" d="M238.6,193.9l-17.1-59.7c-1-3.7-4.4-6.2-8.2-6.2h-25.6v-8.5c0-18.8-15.3-34.1-34.1-34.1s-34.1,15.3-34.1,34.1
			v8.5H93.9c-3.8,0-7.2,2.5-8.2,6.2l-17.1,59.7c-0.7,2.6-0.2,5.3,1.4,7.5s4.1,3.4,6.8,3.4h153.6c2.7,0,5.2-1.3,6.8-3.4
			C238.8,199.3,239.3,196.5,238.6,193.9z M88.1,187.7l12.2-42.7H128c4.7,0,8.5-3.8,8.5-8.5v-17.1c0-9.4,7.7-17.1,17.1-17.1
			c9.4,0,17.1,7.7,17.1,17.1v17.1c0,4.7,3.8,8.5,8.5,8.5h27.7l12.2,42.7H88.1z"/>
	</g>
</g>
<g>
	<g>
		<rect x="230.4" y="93.9" class="st0" width="273.1" height="17.1"/>
	</g>
</g>
<g>
	<g>
		<path class="st0" d="M401.1,0h-68.3c-4.7,0-8.5,3.8-8.5,8.5v145.1c0,4.7,3.8,8.5,8.5,8.5h68.3c4.7,0,8.5-3.8,8.5-8.5V8.5
			C409.6,3.8,405.8,0,401.1,0z M392.5,145.1h-51.2v-128h51.2V145.1z"/>
	</g>
</g>
<g>
	<g>
		<rect x="460.8" y="273.1" class="st0" width="17.1" height="17.1"/>
	</g>
</g>
<g>
	<g>
		<rect x="426.7" y="273.1" class="st0" width="17.1" height="17.1"/>
	</g>
</g>
<g>
	<path class="st0" d="M188.8,417.6c-5.8,5.7-14.3,9.2-25.3,10.6v16.4h-14.6v-15.9c-7.2-0.4-14.1-1.7-20.6-3.8
		c-6.5-2.1-11.8-4.8-15.8-7.9l8-17.8c3.7,2.7,8,5,13,6.9c5,1.9,10.1,3,15.3,3.5V385c-6.9-1.7-12.8-3.5-17.5-5.6c-4.8-2-8.8-5-12-9
		c-3.2-3.9-4.8-9.2-4.8-15.7c0-8.1,2.9-15,8.8-20.8c5.9-5.8,14.4-9.3,25.5-10.6v-16.2h14.6v15.9c12,1,21.9,3.9,29.7,8.9l-7.3,18
		c-7.3-4.2-14.8-6.7-22.4-7.6v24.8c6.8,1.6,12.6,3.3,17.3,5.3c4.7,2,8.7,5,11.9,8.9c3.2,3.9,4.8,9.1,4.8,15.6
		C197.5,405,194.6,411.9,188.8,417.6z M140.8,359.6c1.8,1.6,4.5,2.9,8,3.9v-20.8c-3.7,0.9-6.4,2.3-8.2,4.2c-1.8,1.9-2.6,4.1-2.6,6.6
		C138,356.1,139,358.1,140.8,359.6z M171.4,405.1c1.8-1.8,2.6-3.8,2.6-6.3c0-2.4-0.9-4.4-2.7-6c-1.8-1.6-4.4-2.9-7.8-4.1v20.2
		C167,408.1,169.6,406.8,171.4,405.1z"/>
</g>
<path class="st0" d="M118.9,265.5l-29.7,29.7c-2.7,2.7-2.7,7.2,0,9.9c1.4,1.4,3.2,2.1,5,2.1s3.6-0.7,4.9-2.1l29.7-29.7
	c5-5,13-5.4,18.5-0.9c11.1,9,27.1,8.2,37.2-1.9l24.3-24.3v7.9c0,3.9,3.1,7,7,7s7-3.1,7-7v-24.7c0-3.9-3.1-7-7-7h-24.7
	c-3.9,0-7,3.1-7,7s3.1,7,7,7h7.7l-24.2,24.2c-5,5-13,5.4-18.5,0.9C145.1,254.6,129.1,255.4,118.9,265.5z"/>
</svg>
