<?xml version="1.0" encoding="utf-8"?>
<!-- Generator: Adobe Illustrator 21.1.0, SVG Export Plug-In . SVG Version: 6.00 Build 0)  -->
<svg version="1.1" id="Layer_1" xmlns="http://www.w3.org/2000/svg" xmlns:xlink="http://www.w3.org/1999/xlink" x="0px" y="0px"
	 viewBox="0 0 512 512" style="enable-background:new 0 0 512 512;" xml:space="preserve">
<style type="text/css">
	.st0{fill:#0C397A;}
</style>
<title>024 - Movers</title>
<desc>Created with Sketch.</desc>
<g id="Page-1">
	<g id="_x30_24---Movers" transform="translate(0.000000, -1.000000)">
		<path id="Shape" class="st0" d="M458.8,361l-15.2-60.9l-8.4-142.6c0-0.2-0.1-0.5-0.1-0.7c22.9-15.9,31.8-45.6,21.3-71.4
			c-10.5-25.9-37.4-41.1-65-36.6s-48.3,27.4-50,55.3c-1.7,27.9,16.1,53.2,42.9,61l1.9,32.3l-38.4,38.4h-15V116.2
			c0-9.4-7.6-17.1-17.1-17.1H196.3c-9.4,0-17.1,7.6-17.1,17.1v119.5h-15l-38.4-38.4l1.9-32.3c26.8-7.8,44.6-33.2,42.9-61
			c-1.7-27.9-22.5-50.8-50-55.3S66,59.3,55.6,85.2s-1.6,55.5,21.3,71.4c0,0.2-0.1,0.4-0.1,0.6l-8.4,142.8L53.2,361L5.1,425.1
			c-8.5,11.3-6.2,27.4,5.1,35.8c11.3,8.5,27.4,6.2,35.8-5.1l51.2-68.2c2.1-2.7,3.6-5.8,4.4-9.2l5.2-20.8l21.1,24.2v58.7
			c0,14.1,11.5,25.6,25.6,25.6s25.6-11.5,25.6-25.6v-68.3c0-6.2-2.3-12.2-6.3-16.9L120.1,295l1.7-29.3l13.7,13.7
			c4.8,4.8,11.3,7.6,18.2,7.5h59.7c14.1,0,25.6-11.5,25.6-25.6c0-2.9-0.6-5.8-1.6-8.5h37.3c-1,2.7-1.5,5.6-1.6,8.5
			c0,14.1,11.5,25.6,25.6,25.6h59.7c6.8,0,13.3-2.7,18.1-7.5l13.7-13.7l1.7,29.3L339,355.5c-3.9,4.7-6.1,10.6-6.2,16.7v68.3
			c0,14.1,11.5,25.6,25.6,25.6c14.1,0,25.6-11.5,25.6-25.6v-58.7l21.2-24.2l5.2,20.7c0.8,3.3,2.3,6.5,4.4,9.2l51.2,68.3
			c4.8,6.4,12.4,10.2,20.5,10.2c9.7,0,18.6-5.5,22.9-14.2s3.4-19.1-2.4-26.8L458.8,361z M358.4,107.7c0-23.6,19.1-42.7,42.7-42.7
			c23.6,0,42.7,19.1,42.7,42.7s-19.1,42.7-42.7,42.7C377.5,150.3,358.4,131.2,358.4,107.7z M273.1,116.2v26.7l-12.3-8.2
			c-2.9-1.9-6.6-1.9-9.5,0l-12.3,8.2v-26.7H273.1z M196.3,116.2h25.6v42.7c0,3.1,1.7,6,4.5,7.5c2.8,1.5,6.1,1.3,8.8-0.4L256,152
			l20.9,13.9c2.6,1.7,6,1.9,8.8,0.4c2.8-1.5,4.5-4.4,4.5-7.5v-42.7h25.6v119.5H196.3V116.2z M68.3,107.7c0-23.6,19.1-42.7,42.7-42.7
			s42.7,19.1,42.7,42.7s-19.1,42.7-42.7,42.7C87.4,150.3,68.3,131.2,68.3,107.7z M85.1,374.4c-0.3,1.1-0.8,2.1-1.4,2.9l-51.2,68.3
			c-2.9,3.6-8.1,4.4-11.9,1.7c-3.8-2.8-4.5-8.2-1.7-11.9l49.2-65.5c0.7-0.9,1.2-1.9,1.5-3.1l10.1-40.4L93.1,342L85.1,374.4z
			 M213.3,269.8h-59.7c-2.3,0-4.4-0.9-6-2.5l-26.7-26.7c-0.1-0.1-0.2-0.2-0.3-0.3L110,229.7c-2.1-2.2-5.3-3.1-8.3-2.3
			c-3,0.8-5.3,3.1-6.1,6.1c-0.8,3,0.1,6.2,2.3,8.3l7.8,7.8l-2.8,47.8v0.1c0,0.2,0,0.5,0.1,0.7c0,0.9,0.1,1.7,0.4,2.6
			c0.3,0.7,0.7,1.4,1.2,2.1c0.1,0.3,0.3,0.5,0.5,0.8l55,62.8c1.4,1.6,2.2,3.7,2.2,5.9v68.3c0,4.7-3.8,8.5-8.5,8.5s-8.5-3.8-8.5-8.5
			v-61.9c0-2.1-0.8-4.1-2.1-5.6l-55.5-63.4c-1.7-1.9-2.4-4.5-2-7c0-0.2-0.1-0.4,0-0.6v-0.1l8.1-137.1c5.5,1.7,11.2,2.5,17,2.6
			l-1.4,24.2c-0.2,0.2-0.4,0.2-0.6,0.4c-3.3,3.3-3.3,8.7,0,12.1l2.2,2.2c0.1,0.1,0.2,0.2,0.2,0.2l43.8,43.8c1.6,1.6,3.8,2.5,6,2.5
			h52.6c4.7,0,8.5,3.8,8.5,8.5S218,269.8,213.3,269.8L213.3,269.8z M369,373c-1.4,1.6-2.1,3.6-2.1,5.6v61.9c0,4.7-3.8,8.5-8.5,8.5
			s-8.5-3.8-8.5-8.5v-68.3c0-2.1,0.8-4.1,2.1-5.6l55.1-63c0.2-0.2,0.3-0.5,0.5-0.8c1.1-1.3,1.6-3,1.5-4.7c0-0.2,0.1-0.5,0.1-0.7
			v-0.1l-2.8-47.8l7.8-7.8c2.2-2.2,3-5.3,2.2-8.3c-0.8-3-3.1-5.3-6-6.1c-2.9-0.8-6.1,0-8.3,2.2l-10.6,10.6c-0.1,0.1-0.2,0.2-0.3,0.3
			l-26.7,26.7c-1.6,1.6-3.8,2.5-6,2.5h-59.7c-4.7,0-8.5-3.8-8.5-8.5s3.8-8.5,8.5-8.5h52.7c2.3,0,4.4-0.9,6-2.5l43.8-43.7
			c0.1-0.1,0.2-0.2,0.3-0.3l2.2-2.2c3.3-3.3,3.3-8.7,0-12.1c-0.2-0.2-0.4-0.2-0.6-0.4l-1.4-24.2c5.8,0,11.5-0.9,17-2.6l8.1,137.1
			v0.1c0,0.2-0.1,0.4,0,0.6c0.4,2.5-0.3,5.1-2,7L369,373z M491.5,447.3c-3.8,2.7-9,1.9-11.9-1.7l-51.2-68.3c-0.7-0.9-1.1-1.9-1.4-3
			l-8.1-32.3l13.7-15.6l10.1,40.4c0.3,1.1,0.8,2.1,1.5,3.1l49.1,65.5C496.1,439.1,495.3,444.5,491.5,447.3z"/>
	</g>
</g>
</svg>
