<?xml version="1.0" encoding="utf-8"?>
<!-- Generator: Adobe Illustrator 21.1.0, SVG Export Plug-In . SVG Version: 6.00 Build 0)  -->
<svg version="1.1" id="Capa_1" xmlns="http://www.w3.org/2000/svg" xmlns:xlink="http://www.w3.org/1999/xlink" x="0px" y="0px"
	 viewBox="0 0 512 512" style="enable-background:new 0 0 512 512;" xml:space="preserve">
<style type="text/css">
	.st0{fill:#0C397A;}
</style>
<g>
	<g>
		<g>
			<path class="st0" d="M32,192h74.7c0,28.4-10,39.4-14.1,42.7H74.7V256H224v-21.3h-17.9c-3.9-3.3-14.1-14.3-14.1-42.7h74.7
				c17.7,0,32-14.3,32-32V96H448v70.3l-24.4-24.4l-15,15l42.7,42.7c4.2,4.1,10.9,4.1,15,0l42.7-42.7l-15-15l-24.5,24.4v-81
				c0-5.9-4.8-10.7-10.7-10.7h-160V32c0-17.7-14.3-32-32-32H32C14.3,0,0,14.3,0,32v128C0,177.7,14.3,192,32,192z M119,234.7
				c6.4-13.3,9.4-27.9,9-42.7h42.7c-0.5,14.7,2.6,29.4,9,42.7H119L119,234.7z M21.3,32c0-5.9,4.8-10.7,10.7-10.7h234.7
				c5.9,0,10.7,4.8,10.7,10.7v128c0,5.9-4.8,10.7-10.7,10.7H32c-5.9,0-10.7-4.8-10.7-10.7V32z"/>
			<path class="st0" d="M480,362.7c0-17.7-14.3-32-32-32v-96c0-5.9-4.8-10.7-10.7-10.7h-128c-5.9,0-10.7,4.8-10.7,10.7V288h-21.3
				c-5.9,0-10.7,4.8-10.7,10.7V416H64v-70.3l24.4,24.4l15-15l-42.7-42.7c-4.2-4.1-10.9-4.1-15,0L3.1,355.1l15,15l24.5-24.4v81
				c0,5.9,4.8,10.7,10.7,10.7h213.3V448c0,17.7,14.3,32,32,32c0,17.7,14.3,32,32,32H480c17.7,0,32-14.3,32-32v-85.3
				C512,377,497.7,362.7,480,362.7z M320,245.3h106.7v85.3h-57.4L351,293.8c-1.8-3.6-5.5-5.9-9.6-5.9H320V245.3z M298.7,458.7
				c-5.9,0-10.7-4.8-10.7-10.7V309.3h46.7l18.3,36.8c1.8,3.6,5.5,5.9,9.6,5.9H448c5.9,0,10.7,4.8,10.7,10.7V448
				c0,5.9-4.8,10.7-10.7,10.7H298.7z M490.7,480c0,5.9-4.8,10.7-10.7,10.7H330.7c-5.9,0-10.7-4.8-10.7-10.7h128
				c17.7,0,32-14.3,32-32v-64c5.9,0,10.7,4.8,10.7,10.7V480z"/>
			<path class="st0" d="M384,401l-29.8-29.8c-4.2-4.1-10.9-4.1-15,0l-37.3,37.3l15,15l29.8-29.8l29.8,29.8c4.2,4.1,10.9,4.1,15,0
				l48-48l-15-15L384,401z"/>
			<rect x="373.3" y="256" class="st0" width="42.7" height="21.3"/>
			<rect x="373.3" y="288" class="st0" width="42.7" height="21.3"/>
		</g>
	</g>
</g>
<path class="st0" d="M137.7,101.7l-20.3-20.3l-22.3,22.3l31.5,31.5c6.1,6.1,16.2,6.1,22.3,0l63-63l-22.3-22.3L137.7,101.7z"/>
</svg>
