<?xml version="1.0" encoding="utf-8"?>
<!-- Generator: Adobe Illustrator 21.1.0, SVG Export Plug-In . SVG Version: 6.00 Build 0)  -->
<svg version="1.1" id="Capa_1" xmlns="http://www.w3.org/2000/svg" xmlns:xlink="http://www.w3.org/1999/xlink" x="0px" y="0px"
	 viewBox="0 0 512 512" style="enable-background:new 0 0 512 512;" xml:space="preserve">
<style type="text/css">
	.st0{fill:#0C397A;}
</style>
<g>
	<g>
		<g>
			<path class="st0" d="M366.4,356.2c7.1,0,14.1-2.7,19.5-8.1c3.3-3.3,3.3-8.6,0-11.9s-8.6-3.3-11.9,0c-4.2,4.2-11,4.2-15.2,0
				c-3.3-3.3-8.6-3.3-11.9,0s-3.3,8.6,0,11.9C352.3,353.5,359.4,356.2,366.4,356.2z"/>
			<path class="st0" d="M481.3,419.4c-4.1-2.2-9.3-0.7-11.5,3.4s-0.7,9.3,3.4,11.5c13.7,7.5,21.9,19.8,21.9,33.1v25.8h-34.8v-10.1
				c0-4.7-3.8-8.5-8.5-8.5s-8.5,3.8-8.5,8.5v10.1h-153v-10.1c0-4.7-3.8-8.5-8.5-8.5s-8.5,3.8-8.5,8.5v10.1h-34.8v-25.8
				c0-18.5,15.5-34.4,37.8-38.8l31.9-6.2c3.8-0.8,7.4-2,10.7-3.6c13.8,10.3,30.5,15.9,47.8,15.9s34-5.6,47.8-15.9
				c3.3,1.6,6.9,2.8,10.7,3.6l21.7,4.2c0.6,0.1,1.1,0.2,1.6,0.2c4,0,7.5-2.8,8.3-6.9c0.9-4.6-2.1-9.1-6.7-10l-21.7-4.2
				c-10.2-2-17.6-9.4-17.6-17.5v-12.5c16.9-13.4,27.8-34.1,27.8-57.3v-52.8l0,0v-0.1c0-0.1,0-0.1,0-0.2c0-1.6-0.5-3.1-1.4-4.5
				c-2.6-3.9-7.8-5-11.8-2.4c-7.1,4.7-24.2,7.5-33.3,7.5c-22.4,0-44.1-8-62.5-22.7l-20.9-22.5c3.9-5.7,8.3-10.6,13.1-14.7
				c21.1-18,46-17.1,46.2-17.1c15.7,0.8,30.6,7.9,44.3,21.2c12.3,11.9,21.4,28.8,27.3,50.4c1.2,4.5,5.9,7.2,10.4,6s7.2-5.9,6-10.4
				c-6.6-24.6-17.3-44.1-31.8-58.1c-20.9-20.2-41.6-25.3-55.3-26c-1.3-0.1-31.7-1.4-58.1,21.1c-7.6,6.5-14.3,14.5-19.9,24.1l0,0
				c0,0,0,0,0,0.1c0,0,0,0.1-0.1,0.1l0,0c-5.3,8.5-9,17.7-11,27.5c-1.8,8.7-2.2,17.6-1.3,26.4c0.3,2.4,1.6,4.6,3.6,6
				c1.4,1,3.1,1.5,4.9,1.5c0.7,0,1.4-0.1,2-0.2c1.1-0.3,2.1-0.6,3.2-0.9v40.6c0,24.3,11.9,45.9,30.2,59.2v10.6
				c0,8.1-7.4,15.5-17.6,17.5L273,412c-30.3,5.9-51.5,28.8-51.5,55.5v34.3c0,4.7,3.8,8.5,8.5,8.5h273.5c4.7,0,8.5-3.8,8.5-8.5v-34.3
				C512,447.8,500.5,429.9,481.3,419.4z M366.7,417.7c-12.1,0-23.9-3.5-34-9.9c4.3-5.6,6.8-12.3,6.8-19.5v-1.4
				c8.1,3.1,16.8,4.8,26,4.8c10.1,0,19.7-2.1,28.5-5.8v2.4c0,7.2,2.5,13.9,6.8,19.5C390.6,414.2,378.9,417.7,366.7,417.7z
				 M298.6,257.3c-1,0.2-1.8,0.7-2.6,1.2c-0.3,0.1-0.5,0.2-0.8,0.4c0.2-3.5,0.6-7,1.3-10.5c0.8-3.7,1.8-7.3,3.2-10.7
				c3.6,4.2,7.4,8.2,11.3,11.9c-4.6,3.5-8.3,5.6-9.7,6.4C300.5,256.4,299.5,256.9,298.6,257.3z M309.3,318.4V271h0.1
				c2.6-1.4,8.4-4.8,15.1-10.3c20.2,14.5,43.5,22.3,67.8,22.3c6.1,0,18.5-1.2,29.5-4.5v40c0,31-25.2,56.2-56.2,56.2
				S309.3,349.4,309.3,318.4z"/>
		</g>
	</g>
</g>
<g>
	<g>
		<circle class="st0" cx="339.8" cy="290.8" r="7.2"/>
	</g>
</g>
<g>
	<g>
		<circle class="st0" cx="388.6" cy="290.8" r="7.2"/>
	</g>
</g>
<g>
	<g>
		<path class="st0" d="M261.4,170.1c20.3-18.6,31.5-44.9,30.9-72.6C291,45,247.5,3.2,195.1,3.9c-0.3,0-0.4,0-0.7,0
			c-25.7,0.5-49.7,11.2-67.5,29.9c-8.6,9.2-15.3,19.7-19.7,31.2l-41.8,0.7c-4.3,0.1-7.7,3.6-7.7,8s3.6,7.7,8,7.7l37-0.5
			c-1,5.1-1.6,10.3-1.8,15.6l-38,0.5c-4.3,0.1-7.7,3.6-7.7,8c0.1,4.3,3.6,7.7,8,7.7l38.4-0.5c0.7,5.3,1.8,10.5,3.3,15.5l-38.5,0.5
			c-4.3,0.1-7.7,3.6-7.7,8c0.1,4.3,3.6,7.7,8,7.7l44.5-0.7c4.7,9.2,11,17.8,18.5,25.2c2,2,4,3.7,6.2,5.5c-9.6,4.6-20.1,7.1-30.8,7.6
			c-6.8,0.3-13.7-0.3-20.4-1.7c-2.6-0.5-5.3,0.3-7.1,2.1c-10.8,10.8-24,15-28.5,16.5c-1,0.3-2.2,0.7-3.3,1c4.4-7.7,7.6-16.7,9.5-27
			c0.5-2.9-0.6-5.8-2.9-7.6c-19.4-15.2-30.6-38-30.9-62.6c-0.3-44,35.1-80.1,79-80.7c0.1,0,0.4,0,0.5,0c4.7-0.1,9.5,0.3,14,1.1
			c4.3,0.7,8.3-2.2,9-6.4s-2.2-8.3-6.4-9c-5.5-0.9-11.2-1.4-16.7-1.4c-0.3,0-0.4,0-0.7,0c-52.5,0.7-94.7,44-94.3,96.5
			c0.3,27.8,12.3,53.6,33.1,71.6c-1.8,7.4-4.9,16.3-10.8,23.6c-3.1,3.9-3.5,9.1-1,13.3c2.2,3.8,6.1,6,10.4,5.9c0.5,0,1-0.1,1.5-0.1
			c5-0.7,9.9-1.8,14.6-3.3c4.9-1.5,19-6.1,31.8-17.4c6.6,1.2,13.4,1.6,20.2,1.3c15.8-0.7,31.1-5.2,44.7-13.3
			c13.7,7.6,29.1,11.7,45.1,11.9c6.7,0.1,13.5-0.6,20.1-1.9c13,11,27.3,15,32.2,16.4c4.8,1.4,9.8,2.3,14.7,2.9
			c0.5,0.1,1,0.1,1.4,0.1c4.3-0.1,8.2-2.5,10.2-6.3c2.2-4.3,1.7-9.5-1.5-13.2C266.8,186.3,263.3,177.5,261.4,170.1z M252,195
			c-4.4-1.3-17.9-5.1-28.9-15.6c-1.5-1.4-3.5-2.1-5.5-2.1c-0.5,0-1.2,0.1-1.8,0.3c-6.5,1.6-13.4,2.4-20.3,2.3
			c-14.5-0.2-28.5-4.2-40.6-11.6c-0.4-0.3-0.8-0.5-1.2-0.7c-4.8-3-9.2-6.5-13.2-10.5c-7.4-7.3-13.2-15.7-17.4-24.8
			c0-0.1-0.1-0.3-0.1-0.4c-4-9.2-6.3-19.1-6.7-29.3c-0.7-21.6,7-42.1,21.8-57.8s34.9-24.6,56.5-25c0.1,0,0.4,0,0.5,0
			c44-0.7,80.4,34.4,81.3,78.3c0.5,24.6-10,47.7-28.9,63.5c-2.2,1.8-3.3,4.8-2.6,7.6c2.2,10.2,5.6,19.2,10.3,26.7
			C254.2,195.5,253.1,195.3,252,195z"/>
	</g>
</g>
<g>
	<g>
		<path class="st0" d="M241.7,61.6l-88.3,1.3c-4.3,0.1-7.7,3.6-7.7,8c0.1,4.3,3.6,7.7,8,7.7l88.3-1.3c4.3-0.1,7.7-3.6,7.7-8
			C249.6,65,246.1,61.6,241.7,61.6z"/>
	</g>
</g>
<g>
	<g>
		<path class="st0" d="M242.3,92.8L154,94.1c-4.3,0.1-7.7,3.6-7.7,8c0.1,4.3,3.6,7.7,8,7.7l88.3-1.3c4.3-0.1,7.7-3.6,7.7-8
			C250.1,96.1,246.6,92.7,242.3,92.8z"/>
	</g>
</g>
<g>
	<g>
		<path class="st0" d="M200,124.6l-45.6,0.7c-4.3,0.1-7.7,3.6-7.7,8c0.1,4.3,3.6,7.7,8,7.7l45.6-0.7c4.3-0.1,7.7-3.6,7.7-8
			C208,127.9,204.3,124.5,200,124.6z"/>
	</g>
</g>
</svg>
