<?xml version="1.0" encoding="utf-8"?>
<!-- Generator: Adobe Illustrator 21.1.0, SVG Export Plug-In . SVG Version: 6.00 Build 0)  -->
<svg version="1.1" id="Capa_1" xmlns="http://www.w3.org/2000/svg" xmlns:xlink="http://www.w3.org/1999/xlink" x="0px" y="0px"
	 viewBox="0 0 512 512" style="enable-background:new 0 0 512 512;" xml:space="preserve">
<style type="text/css">
	.st0{fill:#0C397A;}
</style>
<g>
	<g>
		<path class="st0" d="M320.7,291.8c-1.7-0.5-3.5-0.6-5.2-0.4c-0.2,0-0.4,0-0.6,0c15.7-15.3,25.4-36.6,25.4-60.2V111.1
			c0-6.7-5.4-12.1-12.1-12.1h-89.4c-36.9,0-67,30-67,67v65.2c0,23.6,9.7,44.9,25.4,60.2c-0.2,0-0.4,0-0.6,0
			c-1.7-0.3-3.5-0.1-5.2,0.4C129,297.4,80,349.9,80,413.7v59.2c0,6.7,5.4,12.1,12.1,12.1H420c6.7,0,12.1-5.4,12.1-12.1v-59.2
			C432.1,349.9,383.1,297.4,320.7,291.8z M196,182.9V166l0,0c0-23.6,19.2-42.9,42.9-42.9h77.3v32.3c0,16.3-13.3,29.6-29.6,29.6H196
			V182.9L196,182.9z M196,231.2v-22.1h90.6c10.9,0,21.1-3.3,29.6-8.9v31c0,33.1-26.9,60.1-60.1,60.1C223,291.3,196,264.3,196,231.2z
			 M288.1,315.4l-32,32l-32-32H288.1L288.1,315.4z M408,460.9H104.2v-34.7h98.4c6.7,0,12.1-5.4,12.1-12.1s-5.4-12.1-12.1-12.1h-97.7
			c5.3-44.8,40.9-80.5,85.7-85.9l56.9,56.9c2.4,2.4,5.4,3.5,8.5,3.5s6.2-1.2,8.5-3.5l56.9-56.9c48.6,5.9,86.5,47.4,86.5,97.6v47.2
			H408z"/>
	</g>
</g>
<g>
	<g>
		<path class="st0" d="M264.6,405.6c-2.2-2.2-5.4-3.5-8.5-3.5c-3.2,0-6.3,1.3-8.5,3.5s-3.5,5.4-3.5,8.5c0,3.2,1.3,6.3,3.5,8.5
			s5.4,3.5,8.5,3.5c3.2,0,6.3-1.3,8.5-3.5s3.5-5.4,3.5-8.5C268.2,410.9,266.9,407.8,264.6,405.6z"/>
	</g>
</g>
</svg>
