<?xml version="1.0" encoding="utf-8"?>
<!-- Generator: Adobe Illustrator 21.1.0, SVG Export Plug-In . SVG Version: 6.00 Build 0)  -->
<svg version="1.1" id="Layer_1" xmlns="http://www.w3.org/2000/svg" xmlns:xlink="http://www.w3.org/1999/xlink" x="0px" y="0px"
	 viewBox="0 0 512 512" style="enable-background:new 0 0 512 512;" xml:space="preserve">
<style type="text/css">
	.st0{fill:#0C397A;}
</style>
<g>
	<g>
		<path class="st0" d="M441.3,354.2c-1.7-4.6-6.7-6.9-11.3-5.2l-91.6,33.8c-4.6,1.7-6.9,6.7-5.2,11.3c1.3,3.5,4.7,5.8,8.3,5.8
			c1,0,2.1-0.2,3-0.5l91.6-33.8C440.6,363.9,442.9,358.8,441.3,354.2z"/>
	</g>
</g>
<g>
	<g>
		<path class="st0" d="M324.5,397.3c-1.6-4.6-6.7-6.9-11.3-5.2l-3.9,1.5c-4.6,1.7-6.9,6.7-5.2,11.3c1.3,3.5,4.7,5.8,8.3,5.8
			c1,0,2.1-0.2,3-0.5l3.9-1.5C323.9,407,326.2,401.9,324.5,397.3z"/>
	</g>
</g>
<g>
	<g>
		<path class="st0" d="M441.3,318.4c-1.7-4.6-6.7-6.9-11.3-5.2l-72.3,26.7c-4.6,1.7-6.9,6.7-5.2,11.3c1.3,3.5,4.7,5.8,8.3,5.8
			c1,0,2.1-0.2,3-0.5l72.3-26.7C440.6,328,442.9,323,441.3,318.4z"/>
	</g>
</g>
<g>
	<g>
		<path class="st0" d="M441.3,282.8c-1.7-4.6-6.7-6.9-11.3-5.2l-72.4,26.7c-4.6,1.7-6.9,6.7-5.2,11.3c1.3,3.5,4.7,5.8,8.3,5.8
			c1,0,2.1-0.2,3-0.5l72.3-26.7C440.6,292.5,442.9,287.4,441.3,282.8z"/>
	</g>
</g>
<g>
	<g>
		<path class="st0" d="M471.2,121.8L259,43.5c-2-0.7-4.1-0.7-6.1,0L40.8,121.8l0,0c-0.7,0.3-1.4,0.6-2,1c-2.3,1.6-3.8,4.3-3.8,7.3
			V382c0,3.7,2.3,7,5.8,8.3L253,468.5c0.9,0.3,2,0.5,3,0.5s2.1-0.2,3-0.5l0,0l212.2-78.3c3.5-1.3,5.8-4.6,5.8-8.3V130
			C477,126.3,474.7,123.1,471.2,121.8z M247.2,447.6L52.6,375.8V142.7l39.6,14.6V264c0,3.7,2.3,7,5.8,8.3l95.1,35
			c0.9,0.3,2,0.5,3,0.5c1.8,0,3.5-0.5,5-1.6c2.3-1.6,3.8-4.3,3.8-7.3v-100l42.3,15.6L247.2,447.6L247.2,447.6z M187.3,192.4v94
			l-77.5-28.6v-94L187.3,192.4z M126.5,151.1l69.7-25.7l69.7,25.7l-69.7,25.7L126.5,151.1z M256,198.9l-34.5-12.8l72.8-26.8
			c3.5-1.3,5.8-4.6,5.8-8.3s-2.3-7-5.8-8.3l-95-35c-2-0.7-4.1-0.7-6.1,0l-92.2,34L69.3,130L256,61.2L442.7,130L256,198.9z
			 M459.4,375.8l-194.6,71.8V214.5l194.6-71.8V375.8z"/>
	</g>
</g>
</svg>
