<?xml version="1.0" encoding="utf-8"?>
<!-- Generator: Adobe Illustrator 21.1.0, SVG Export Plug-In . SVG Version: 6.00 Build 0)  -->
<svg version="1.1" id="Capa_1" xmlns="http://www.w3.org/2000/svg" xmlns:xlink="http://www.w3.org/1999/xlink" x="0px" y="0px"
	 viewBox="0 0 612 612" style="enable-background:new 0 0 612 612;" xml:space="preserve">
<style type="text/css">
	.st0{fill:#0C397A;}
	.st1{fill:#FFFFFF;}
</style>
<g>
	<g id="_x38__3_">
		<g>
			<path class="st0" d="M306,0C137,0,0,137,0,306s137,306,306,306s306-137,306-306S475,0,306,0z"/>
		</g>
	</g>
</g>
<path class="st1" d="M466.7,279.5H332.5V145.5c0-14.7-11.9-26.5-26.5-26.5c-14.6,0-26.5,11.9-26.5,26.5v134.1H145.5
	c-14.7,0-26.5,11.9-26.5,26.5c0,14.6,11.9,26.5,26.5,26.5h134.1v134.1c0,14.7,11.9,26.5,26.5,26.5c14.6,0,26.5-11.9,26.5-26.5V332.5
	h134.1c14.7,0,26.5-11.9,26.5-26.5C493,291.4,481.2,279.5,466.7,279.5z"/>
</svg>
