<?xml version="1.0" encoding="utf-8"?>
<!-- Generator: Adobe Illustrator 21.1.0, SVG Export Plug-In . SVG Version: 6.00 Build 0)  -->
<svg version="1.1" id="Capa_1" xmlns="http://www.w3.org/2000/svg" xmlns:xlink="http://www.w3.org/1999/xlink" x="0px" y="0px"
	 viewBox="0 0 512 512" style="enable-background:new 0 0 512 512;" xml:space="preserve">
<style type="text/css">
	.st0{fill:#0C397A;stroke:#FFFFFF;stroke-width:3;stroke-miterlimit:10;}
</style>
<g>
	<g>
		<path class="st0" d="M218,28c-62.9,0-114,51.1-114,114v38c0,23.5,7.2,45.4,19.4,63.6C66.5,276.4,28,337.7,28,408v19
			c0,31.4,25.6,57,57,57h171c10.5,0,19-8.5,19-19s-8.5-19-19-19H85c-10.5,0-19-8.5-19-19v-19c0-59.6,34.5-111.3,84.7-136.2
			c18.9,13.9,42.1,22.2,67.3,22.2c62.9,0,114-51.1,114-114v-38C332,79.1,280.9,28,218,28z M294,180c0,41.9-34.1,76-76,76
			s-76-34.1-76-76v-38c0-41.9,34.1-76,76-76s76,34.1,76,76V180L294,180z"/>
	</g>
</g>
<g>
	<g>
		<path class="st0" d="M465,351h-76v-76c0-10.5-8.5-19-19-19s-19,8.5-19,19v76h-76c-10.5,0-19,8.5-19,19s8.5,19,19,19h76v76
			c0,10.5,8.5,19,19,19s19-8.5,19-19v-76h76c10.5,0,19-8.5,19-19S475.5,351,465,351z"/>
	</g>
</g>
</svg>
