<?xml version="1.0" encoding="utf-8"?>
<!-- Generator: Adobe Illustrator 21.1.0, SVG Export Plug-In . SVG Version: 6.00 Build 0)  -->
<svg version="1.1" id="Layer_1" xmlns="http://www.w3.org/2000/svg" xmlns:xlink="http://www.w3.org/1999/xlink" x="0px" y="0px"
	 viewBox="0 0 512 512" style="enable-background:new 0 0 512 512;" xml:space="preserve">
<style type="text/css">
	.st0{fill:#0C397A;}
</style>
<path class="st0" d="M417.2,219.9V56.8c0-20.8-17-37.8-37.8-37.8H37.8C17,19,0,36,0,56.8v341.6c0,20.8,17,37.8,37.8,37.8h219.8
	c0.1,0,0.1,0,0.2,0c25.6,34.9,67,57.6,113.5,57.6c77.6,0,140.8-63.1,140.8-140.8C512,291.4,472.3,239,417.2,219.9z M171.3,49.8H246
	c-0.1,0.8-0.2,1.7-0.2,2.6v83.2l-31.9-11.4c-3.3-1.2-7-1.2-10.4,0l-31.9,11.4V52.3C171.5,51.4,171.4,50.6,171.3,49.8z M37.8,405.4
	c-3.9,0-7-3.2-7-7V56.8c0-3.9,3.2-7,7-7H141c-0.1,0.8-0.2,1.7-0.2,2.6v105.1c0,5,2.4,9.7,6.5,12.6c4.1,2.9,9.3,3.6,14,1.9l47.3-16.9
	l47.3,16.9c1.7,0.6,3.4,0.9,5.2,0.9c3.1,0,6.2-1,8.9-2.8c4.1-2.9,6.5-7.6,6.5-12.6V52.3c0-0.9-0.1-1.7-0.2-2.6h103.2
	c3.9,0,7,3.2,7,7V213c-5-0.5-10.1-0.8-15.2-0.8c-77.6,0-140.8,63.1-140.8,140.8c0,18.5,3.6,36.2,10.1,52.5H37.8V405.4z M371.2,463
	c-60.7,0-110-49.3-110-110s49.3-110,110-110s110,49.3,110,110C481.2,413.6,431.9,463,371.2,463z"/>
<path class="st0" d="M437.7,337.6h-51.1v-51.1c0-8.5-6.9-15.4-15.4-15.4s-15.4,6.9-15.4,15.4v51.1h-51.1c-8.5,0-15.4,6.9-15.4,15.4
	s6.9,15.4,15.4,15.4h51.1v51.1c0,8.5,6.9,15.4,15.4,15.4s15.4-6.9,15.4-15.4v-51.1h51.1c8.5,0,15.4-6.9,15.4-15.4
	S446.2,337.6,437.7,337.6z"/>
</svg>
