<?xml version="1.0" encoding="utf-8"?>
<!-- Generator: Adobe Illustrator 21.1.0, SVG Export Plug-In . SVG Version: 6.00 Build 0)  -->
<svg version="1.1" id="Layer_1" xmlns="http://www.w3.org/2000/svg" xmlns:xlink="http://www.w3.org/1999/xlink" x="0px" y="0px"
	 viewBox="0 0 480 480" style="enable-background:new 0 0 480 480;" xml:space="preserve">
<style type="text/css">
	.st0{fill:#CECECE;}
</style>
<path class="st0" d="M477.7,274.3L378.3,175c-4.5-4.5-10.6-7.1-17-7H256v16h8v120h16V184h81.4c2.1,0,4.2,0.9,5.7,2.3l13.7,13.7H344
	c-8.8,0-16,7.2-16,16v72c0,8.8,7.2,16,16,16h120v64c0,4.4-3.6,8-8,8h-16.6c-4-27.5-27.5-48-55.4-48s-51.4,20.4-55.4,48H215.4
	c-4-27.5-27.5-48-55.4-48s-51.4,20.4-55.4,48H88c-4.4,0-8-3.6-8-8v-80H64v80c0,13.3,10.7,24,24,24h16.6c1.7,12.2,7.5,23.4,16.2,32H0
	v16h384c27.8,0,51.4-20.5,55.4-48H456c13.3,0,24-10.7,24-24v-88C480,277.9,479.2,275.8,477.7,274.3z M120,384c0-22.1,17.9-40,40-40
	s40,17.9,40,40s-17.9,40-40,40C137.9,424,120,406.1,120,384z M199.1,424c8.8-8.6,14.5-19.8,16.2-32h113.3c1.7,12.2,7.5,23.4,16.2,32
	H199.1z M384,424c-22.1,0-40-17.9-40-40s17.9-40,40-40s40,17.9,40,40C424,406.1,406.1,424,384,424z M344,288v-72h52.7l67.3,67.3v4.7
	H344z"/>
<path class="st0" d="M152,376h16v16h-16V376z"/>
<path class="st0" d="M376,376h16v16h-16V376z"/>
<path class="st0" d="M0,352h40v16H0V352z"/>
<path class="st0" d="M16,320h24v16H16V320z"/>
<path class="st0" d="M24,288h16v16H24V288z"/>
<path class="st0" d="M304,320h32v16h-32V320z"/>
<path class="st0" d="M120,280c66.3,0,120-53.7,120-120S186.3,40,120,40S0,93.7,0,160C0.1,226.2,53.8,279.9,120,280z M120,56
	c57.4,0,104,46.6,104,104s-46.6,104-104,104S16,217.4,16,160C16.1,102.6,62.6,56.1,120,56z"/>
<path class="st0" d="M120,184c11.7,0,21.7-8.4,23.6-19.9c2-11.5-4.6-22.8-15.6-26.6V96h-16v41.5c-6.8,2.4-12.1,7.8-14.5,14.5H72v16
	h25.5C100.9,177.6,109.9,184,120,184z M120,152c4.4,0,8,3.6,8,8s-3.6,8-8,8s-8-3.6-8-8S115.6,152,120,152z"/>
<path class="st0" d="M24,152h16v16H24V152z"/>
<path class="st0" d="M112,240h16v16h-16V240z"/>
<path class="st0" d="M200,152h16v16h-16V152z"/>
<path class="st0" d="M112,64h16v16h-16V64z"/>
</svg>
