<?xml version="1.0" encoding="utf-8"?>
<!-- Generator: Adobe Illustrator 21.1.0, SVG Export Plug-In . SVG Version: 6.00 Build 0)  -->
<svg version="1.1" id="Layer_1" xmlns="http://www.w3.org/2000/svg" xmlns:xlink="http://www.w3.org/1999/xlink" x="0px" y="0px"
	 viewBox="0 0 512 512" style="enable-background:new 0 0 512 512;" xml:space="preserve">
<style type="text/css">
	.st0{fill:#CECECE;}
</style>
<g id="Receipt">
	<path class="st0" d="M360,429.1c-4.4,0-8,3.6-8,8V480H32V32h240v72c0,4.4,3.6,8,8,8h72v138.9c0,4.4,3.6,8,8,8s8-3.6,8-8V104
		c0-2.1-0.8-4.2-2.3-5.7l-80-80c-1.5-1.5-3.5-2.3-5.7-2.3H24c-4.4,0-8,3.6-8,8v464c0,4.4,3.6,8,8,8h336c4.4,0,8-3.6,8-8v-50.9
		C368,432.7,364.4,429.1,360,429.1z M288,96V43.3L340.7,96H288z"/>
	<path class="st0" d="M136,257.1c1.3,0,2.5-0.3,3.6-0.9l64-32.3c2.7-1.4,4.4-4.1,4.4-7.1V136c0-3-1.7-5.8-4.4-7.2l-64-32
		c-2.3-1.1-4.9-1.1-7.2,0l-64,32c-2.7,1.4-4.4,4.1-4.4,7.2v80c0,3,1.7,5.7,4.3,7.1l64,33.1C133.5,256.8,134.7,257.1,136,257.1z
		 M192,211.9l-48,24.2v-63.2l48-24V211.9z M136,112.9l46.1,23.1L136,159.1l-14.1-7.1l17.7-8.8l-7.2-14.3L104,143.1L89.9,136
		L136,112.9z M128,236l-48-24.8v-62.3l16,8V184h16v-19.1l16,8V236z"/>
	<path class="st0" d="M312,144h-32c-4.4,0-8,3.6-8,8s3.6,8,8,8h32c4.4,0,8-3.6,8-8S316.4,144,312,144z"/>
	<path class="st0" d="M312,176h-64c-4.4,0-8,3.6-8,8s3.6,8,8,8h64c4.4,0,8-3.6,8-8S316.4,176,312,176z"/>
	<path class="st0" d="M312,208h-64c-4.4,0-8,3.6-8,8s3.6,8,8,8h64c4.4,0,8-3.6,8-8S316.4,208,312,208z"/>
	<path class="st0" d="M248,160h8c4.4,0,8-3.6,8-8s-3.6-8-8-8h-8c-4.4,0-8,3.6-8,8S243.6,160,248,160z"/>
	<path class="st0" d="M312,424h-80c-4.4,0-8,3.6-8,8s3.6,8,8,8h80c4.4,0,8-3.6,8-8S316.4,424,312,424z"/>
	<path class="st0" d="M312,448h-48c-4.4,0-8,3.6-8,8s3.6,8,8,8h48c4.4,0,8-3.6,8-8S316.4,448,312,448z"/>
	<path class="st0" d="M416,320c9.8,0,16,4.7,16,8h16c0-11.4-10.1-20.6-24-23.2V288h-16v16.8c-13.9,2.6-24,11.8-24,23.2
		c0,13.5,14.1,24,32,24c9.8,0,16,4.7,16,8s-6.2,8-16,8s-16-4.7-16-8h-16c0,11.4,10.1,20.6,24,23.2V400h16v-16.8
		c13.9-2.6,24-11.8,24-23.2c0-13.5-14.1-24-32-24c-9.8,0-16-4.7-16-8S406.2,320,416,320z"/>
	<path class="st0" d="M416,256c-48.6,0-88,39.4-88,88s39.4,88,88,88s88-39.4,88-88C503.9,295.4,464.6,256.1,416,256z M416,416
		c-39.8,0-72-32.2-72-72s32.2-72,72-72s72,32.2,72,72C488,383.7,455.7,416,416,416z"/>
	<path class="st0" d="M88,296H72c-4.4,0-8,3.6-8,8s3.6,8,8,8h16c4.4,0,8-3.6,8-8S92.4,296,88,296z"/>
	<path class="st0" d="M280,296H120c-4.4,0-8,3.6-8,8s3.6,8,8,8h160c4.4,0,8-3.6,8-8S284.4,296,280,296z"/>
	<path class="st0" d="M88,328H72c-4.4,0-8,3.6-8,8s3.6,8,8,8h16c4.4,0,8-3.6,8-8S92.4,328,88,328z"/>
	<path class="st0" d="M280,328H120c-4.4,0-8,3.6-8,8s3.6,8,8,8h160c4.4,0,8-3.6,8-8S284.4,328,280,328z"/>
	<path class="st0" d="M88,360H72c-4.4,0-8,3.6-8,8s3.6,8,8,8h16c4.4,0,8-3.6,8-8S92.4,360,88,360z"/>
	<path class="st0" d="M120,376h160c4.4,0,8-3.6,8-8s-3.6-8-8-8H120c-4.4,0-8,3.6-8,8S115.6,376,120,376z"/>
</g>
</svg>
