<?xml version="1.0" encoding="utf-8"?>
<!-- Generator: Adobe Illustrator 21.1.0, SVG Export Plug-In . SVG Version: 6.00 Build 0)  -->
<svg version="1.1" id="Layer_1" xmlns="http://www.w3.org/2000/svg" xmlns:xlink="http://www.w3.org/1999/xlink" x="0px" y="0px"
	 viewBox="0 0 496 496" style="enable-background:new 0 0 496 496;" xml:space="preserve">
<style type="text/css">
	.st0{fill:#CECECE;}
</style>
<path class="st0" d="M447.8,360.6l4.9-9.8l-19.5-19.5l-9.8,4.9c-4.5-2.5-9.2-4.5-14.2-5.9l-3.5-10.4h-27.5l-3.5,10.4
	c-5,1.4-9.7,3.3-14.2,5.9l-9.8-4.9l-19.5,19.5l4.9,9.8c-2.5,4.5-4.5,9.2-5.9,14.2l-10.4,3.5v27.5l10.4,3.5c1.4,5,3.3,9.7,5.9,14.2
	l-4.9,9.8l19.5,19.5l9.8-4.9c4.5,2.5,9.2,4.5,14.2,5.9l3.5,10.4h27.5l3.5-10.4c5-1.4,9.7-3.3,14.2-5.9l9.8,4.9l19.5-19.5l-4.9-9.8
	c2.5-4.5,4.5-9.2,5.9-14.2l10.4-3.5v-27.5l-10.4-3.5C452.3,369.8,450.3,365.1,447.8,360.6z M448,394.2l-8,2.7l-0.9,4.6
	c-1.2,6.1-3.6,11.9-7.1,17.1l-2.6,3.9l3.8,7.6l-3.2,3.2l-7.6-3.8l-3.9,2.6c-5.2,3.5-11,5.9-17.1,7.1l-4.6,0.9l-2.7,8h-4.5l-2.7-8
	l-4.6-0.9c-6.1-1.2-11.9-3.6-17.1-7.1l-3.9-2.6l-7.6,3.8l-3.2-3.2l3.8-7.6l-2.6-3.9c-3.5-5.2-5.9-11-7.1-17.1l-0.9-4.6l-8-2.7v-4.5
	l8-2.7l0.9-4.6c1.2-6.1,3.6-11.9,7.1-17.1l2.6-3.9l-3.8-7.6l3.2-3.2l7.6,3.8l3.9-2.6c5.2-3.5,11-5.9,17.1-7.1l4.6-0.9l2.7-8h4.5
	l2.7,8l4.6,0.9c6.1,1.2,11.9,3.6,17.1,7.1l3.9,2.6l7.6-3.8l3.2,3.2l-3.8,7.6l2.6,3.9c3.5,5.2,5.9,11,7.1,17.1l0.9,4.6l8,2.7V394.2z"
	/>
<path class="st0" d="M392,360c-17.6,0-32,14.4-32,32s14.4,32,32,32s32-14.4,32-32S409.6,360,392,360z M392,408c-8.8,0-16-7.2-16-16
	s7.2-16,16-16s16,7.2,16,16S400.8,408,392,408z"/>
<path class="st0" d="M472,224H344c-13.2,0-24,10.8-24,24c0,6.2,2.4,11.7,6.2,16c-3.8,4.3-6.2,9.8-6.2,16c0,3.8,1,7.4,2.6,10.6
	c-3.2-1.6-6.8-2.6-10.6-2.6H184c-13.2,0-24,10.8-24,24c0,3.8,1,7.4,2.6,10.6c-3.2-1.6-6.8-2.6-10.6-2.6H24c-13.2,0-24,10.8-24,24
	c0,6.2,2.4,11.7,6.2,16c-3.8,4.3-6.2,9.8-6.2,16s2.4,11.7,6.2,16c-3.8,4.3-6.2,9.8-6.2,16s2.4,11.7,6.2,16c-3.8,4.3-6.2,9.8-6.2,16
	s2.4,11.7,6.2,16c-3.8,4.3-6.2,9.8-6.2,16c0,13.2,10.8,24,24,24h128c6.2,0,11.7-2.4,16-6.2c4.3,3.8,9.8,6.2,16,6.2h128
	c10.8,0,19.9-7.3,22.9-17.2c16.4,10.8,36,17.2,57.1,17.2c57.3,0,104-46.7,104-104c0-21.1-6.4-40.7-17.2-57.1
	c9.9-3,17.2-12,17.2-22.9c0-6.2-2.4-11.7-6.2-16c3.8-4.3,6.2-9.8,6.2-16s-2.4-11.7-6.2-16c3.8-4.3,6.2-9.8,6.2-16
	C496,234.8,485.2,224,472,224z M344,240h128c4.4,0,8,3.6,8,8s-3.6,8-8,8H344c-4.4,0-8-3.6-8-8S339.6,240,344,240z M480,280
	c0,4.4-3.6,8-8,8H344c-4.4,0-8-3.6-8-8s3.6-8,8-8h128C476.4,272,480,275.6,480,280z M16,440c0-4.4,3.6-8,8-8h128c4.4,0,8,3.6,8,8
	s-3.6,8-8,8H24C19.6,448,16,444.4,16,440z M16,408c0-4.4,3.6-8,8-8h128c4.4,0,8,3.6,8,8s-3.6,8-8,8H24C19.6,416,16,412.4,16,408z
	 M16,376c0-4.4,3.6-8,8-8h128c4.4,0,8,3.6,8,8s-3.6,8-8,8H24C19.6,384,16,380.4,16,376z M288.4,400c0.4,5.5,1.3,10.8,2.5,16H184
	c-4.4,0-8-3.6-8-8s3.6-8,8-8H288.4z M176,440c0-4.4,3.6-8,8-8h112c2.3,5.6,5.2,10.9,8.5,16H184C179.6,448,176,444.4,176,440z
	 M288.4,384H184c-4.4,0-8-3.6-8-8s3.6-8,8-8h106.9C289.7,373.2,288.8,378.5,288.4,384z M296,352H184c-4.4,0-8-3.6-8-8s3.6-8,8-8
	h120.5C301.2,341.1,298.4,346.4,296,352z M334.9,305.2c-0.4-1.3-0.9-2.5-1.4-3.7c1.5,0.7,3.1,1.3,4.7,1.7
	C337.1,303.9,336,304.5,334.9,305.2z M184,304h128c4.4,0,8,3.6,8,8s-3.6,8-8,8H184c-4.4,0-8-3.6-8-8S179.6,304,184,304z M24,336h128
	c4.4,0,8,3.6,8,8s-3.6,8-8,8H24c-4.4,0-8-3.6-8-8S19.6,336,24,336z M152,480H24c-4.4,0-8-3.6-8-8s3.6-8,8-8h128c4.4,0,8,3.6,8,8
	S156.4,480,152,480z M312,480H184c-4.4,0-8-3.6-8-8s3.6-8,8-8h128c4.4,0,8,3.6,8,8S316.4,480,312,480z M392,480
	c-48.5,0-88-39.5-88-88s39.5-88,88-88s88,39.5,88,88S440.5,480,392,480z M472,320h-5.1c-5.9-6.1-12.5-11.5-19.7-16H472
	c4.4,0,8,3.6,8,8S476.4,320,472,320z"/>
<path class="st0" d="M48,176v8h112v-8c0-22.4-13.3-41.7-32.3-50.7c5.1-5.7,8.3-13.1,8.3-21.3V88c0-17.6-14.4-32-32-32S72,70.4,72,88
	v16c0,8.2,3.2,15.7,8.3,21.3C61.3,134.3,48,153.6,48,176z M88,104V88c0-8.8,7.2-16,16-16s16,7.2,16,16v16c0,8.8-7.2,16-16,16
	S88,112.8,88,104z M104,136c19.3,0,35.5,13.8,39.2,32H64.8C68.5,149.8,84.7,136,104,136z"/>
<path class="st0" d="M85,293.3c4,6.6,11.3,10.7,19,10.7s15-4.1,19-10.7l52.2-85.5l-13.7-8.3L109.3,285c-2.3,3.7-8.4,3.7-10.7,0
	L28.6,170.3C20.3,156.9,16,141.4,16,125.6c0-20.1,7.2-39.7,20.2-55.1L23.9,60.2C8.5,78.5,0,101.7,0,125.6c0,18.7,5.2,37,14.9,53
	L85,293.3z"/>
<path class="st0" d="M101.6,40h4.7c47.2,0,85.6,38.4,85.6,85.6c0,15.8-4.3,31.2-12.6,44.7l-9.3,15.2l13.7,8.3l5.6-9.1l29,29
	c-1.5,3.1-2.4,6.6-2.4,10.3c0,13.2,10.8,24,24,24s24-10.8,24-24c0-6.5-2.6-12.3-6.7-16.6l27.8-55.7c1,0.1,1.9,0.3,2.9,0.3
	c13.2,0,24-10.8,24-24c0-2.9-0.6-5.7-1.6-8.3l51.7-36.2c3.9,2.8,8.7,4.5,13.9,4.5c13.2,0,24-10.8,24-24c0-0.4-0.1-0.8-0.1-1.3
	L454.3,40c4.4,4.8,10.7,8,17.7,8c13.2,0,24-10.8,24-24S485.2,0,472,0s-24,10.8-24,24c0,0.4,0.1,0.8,0.1,1.3L393.7,48
	c-4.4-4.8-10.7-8-17.7-8c-13.2,0-24,10.8-24,24c0,2.2,0.4,4.3,1,6.4l-52.9,37c-3.6-2.1-7.6-3.4-12.1-3.4c-13.2,0-24,10.8-24,24
	c0,6.5,2.6,12.3,6.7,16.6l-27.8,55.7c-1-0.1-1.9-0.3-2.9-0.3c-3.7,0-7.2,0.9-10.3,2.4l-32.1-32.1c6.8-13.9,10.4-29.1,10.4-44.6
	C208,69.6,162.4,24,106.4,24h-4.7c-23.9,0-47.1,8.5-65.4,23.9l10.3,12.2C61.9,47.2,81.5,40,101.6,40z M472,16c4.4,0,8,3.6,8,8
	s-3.6,8-8,8s-8-3.6-8-8S467.6,16,472,16z M376,56c4.4,0,8,3.6,8,8s-3.6,8-8,8s-8-3.6-8-8S371.6,56,376,56z M288,120c4.4,0,8,3.6,8,8
	s-3.6,8-8,8s-8-3.6-8-8S283.6,120,288,120z M248,224c0,4.4-3.6,8-8,8s-8-3.6-8-8s3.6-8,8-8S248,219.6,248,224z"/>
<path class="st0" d="M440,208h16v-72h33.1L432,67.5L374.9,136H408v72h16v-88h-14.9L432,92.5l22.9,27.5H440V208z"/>
</svg>
