<?xml version="1.0" encoding="utf-8"?>
<!-- Generator: Adobe Illustrator 21.1.0, SVG Export Plug-In . SVG Version: 6.00 Build 0)  -->
<svg version="1.1" id="Layer_1" xmlns="http://www.w3.org/2000/svg" xmlns:xlink="http://www.w3.org/1999/xlink" x="0px" y="0px"
	 viewBox="0 0 512 512" style="enable-background:new 0 0 512 512;" xml:space="preserve">
<style type="text/css">
	.st0{fill:#0C397A;}
</style>
<path class="st0" d="M495.7,257.1c-8.9-9.5-21.2-14.1-33.3-13.5V64.1c0-20.5-16.6-37.1-37.1-37.1H163.2c-20.5,0-37.1,16.6-37.1,37.1
	v206.6c-14.3,5.7-23.4,13.7-28.8,19.7H15.1c-8.3,0-15.1,6.8-15.1,15.1v160.3c0,8.3,6.8,15.1,15.1,15.1h89.3l219.8,3.9
	c0.5,0,1,0,1.5,0c24,0,47-10.1,63.2-27.9l107.6-118.2c10.2-11.2,15.8-25.7,15.6-40.9C511.9,282.6,506.1,268.2,495.7,257.1z
	 M266.7,57.2h53v45.3h-53V57.2z M156.3,64.1c0-3.8,3.1-6.9,6.9-6.9h73.4v60.4c0,8.3,6.8,15.1,15.1,15.1h83.2
	c8.3,0,15.1-6.8,15.1-15.1V57.2h75.4c3.8,0,6.9,3.1,6.9,6.9v193.2l-80.4,64.2c-5.2-11.7-13.2-18.8-20.4-23.1
	c-12.5-7.4-24.9-7.6-26.2-7.6h-66.3c-9.1-10.7-29.9-27.6-70.7-27.6c-4.2,0-8.1,0.2-11.9,0.5V64.1z M30.2,320.6h59.2v130.1H30.2
	V320.6z M474,318.3L366.5,436.5c-10.7,11.8-26,18.3-41.8,18.1L119.6,451V310.6c4.3-5.1,17.9-17.2,48.6-17.2
	c36.9,0,48.2,17.2,49.4,19.2c2.4,5.5,7.5,8.4,13.5,8.4h74c0.1,0,5.5,0.3,10.8,3.4c7.5,4.5,11.1,12.8,11.1,25.5
	c0,12.3-3.4,20.5-10.4,25.1c-5.3,3.5-11.1,3.8-11.7,3.9H201.1c-8.3,0-15.1,6.8-15.1,15.1s6.8,15.1,15.1,15.1h104
	c1.4,0,13.8-0.2,26.2-7.6c11-6.5,23.9-19.7,25.7-45.5l98.7-78.8c0.1-0.1,0.3-0.2,0.4-0.3c5.2-4.4,12.9-4,17.5,1
	C484.3,289.1,484.4,306.9,474,318.3z"/>
</svg>
