<?xml version="1.0" encoding="utf-8"?>
<!-- Generator: Adobe Illustrator 21.1.0, SVG Export Plug-In . SVG Version: 6.00 Build 0)  -->
<svg version="1.1" id="Capa_1" xmlns="http://www.w3.org/2000/svg" xmlns:xlink="http://www.w3.org/1999/xlink" x="0px" y="0px"
	 viewBox="0 0 472 472" style="enable-background:new 0 0 472 472;" xml:space="preserve">
<style type="text/css">
	.st0{fill:#0C397A;}
</style>
<g>
	<g>
		<path class="st0" d="M449.9,377.2c-2.9-7.4-8.6-13.3-15.9-16.3c-7.2-3-15.2-3-22.4,0l-51.9,22c0.1-1,0.2-1.9,0.3-2.9
			c0-15.5-12.5-28-28-28h-62.1c-6.3,0-12.5-1.5-18.1-4.3c-26-12.9-54.6-19.7-83.6-19.7H164c-4.4,0-8,3.6-8,8s3.6,8,8,8h4.3
			c26.5,0,52.7,6.2,76.4,18c7.8,3.9,16.5,5.9,25.2,6H332c6.6,0,12,5.4,11.9,12.1c0,5.6-3.9,10.4-9.3,11.6c-1,0.1-2.1,0.3-3.1,0.3
			H236c-4.4,0-8,3.6-8,8s3.6,8,8,8h95.5h0.4h0.1c0.2,0,0.3,0,0.5,0c6.3-0.1,12.6-1.4,18.5-3.9l66.9-28.4c3.2-1.4,6.8-1.4,10,0
			c3.3,1.4,5.9,4.1,7.2,7.4c1.4,3.4,1.3,7.3-0.2,10.6c-1.4,3.3-4.1,5.8-7.4,7.1l-123.6,47.1c-29,11.1-61.2,10.8-90-1L148,419.6V328
			c0-4.4-3.6-8-8-8H76c-4.4,0-8,3.6-8,8H28c-4.4,0-8,3.6-8,8s3.6,8,8,8h40v40c0,4.4,3.6,8,8,8s8-3.6,8-8v-48h48v96H84v-16
			c0-4.4-3.6-8-8-8s-8,3.6-8,8v8H28c-4.4,0-8,3.6-8,8s3.6,8,8,8h40c0,4.4,3.6,8,8,8h64c4.4,0,8-3.6,8-8v-3l59.7,24.8
			c32.6,13.3,69,13.7,101.8,1.1l123.6-47.1c7.3-2.8,13.2-8.4,16.3-15.6C452.7,392.9,452.9,384.6,449.9,377.2z"/>
	</g>
</g>
<g>
	<g>
		<path class="st0" d="M443.6,61.8c0-0.1,0-0.2,0-0.3c-0.3-0.9-0.8-1.8-1.4-2.5c-0.2-0.2-0.4-0.4-0.6-0.6c-0.5-0.5-1-0.9-1.5-1.2
			c-0.3-0.2-0.6-0.3-0.9-0.5c-0.2-0.1-0.5-0.3-0.7-0.4l-176-56c-1.6-0.5-3.3-0.5-4.8,0l-176,56c-3.3,1-5.6,4.1-5.6,7.6v192
			c0,3.5,2.3,6.6,5.6,7.6l176,56c1.6,0.5,3.3,0.5,4.8,0l176-56c3.3-1.1,5.6-4.1,5.6-7.6V64C444,63.2,443.9,62.5,443.6,61.8z
			 M260,16.4L409.6,64l-30.9,9.8L229,26.2L260,16.4z M202.7,34.6l149.6,47.6L321.4,92L171.7,44.5L202.7,34.6z M428,250.1L268,301
			v-29c0-4.4-3.6-8-8-8s-8,3.6-8,8v29L92,250.1V69.8l53.3-17l149.6,47.6L260,111.6L126.4,69.1c-4.2-1.3-8.7,1-10,5.2s1,8.7,5.2,10
			L252,125.8V240c0,4.4,3.6,8,8,8s8-3.6,8-8V125.8l45.3-14.4v53.1c0,4.4,3.6,8,8,8c0.8,0,1.6-0.1,2.4-0.4l18.7-6
			c4.2-1.3,6.5-5.8,5.2-10s-5.8-6.5-10-5.2l-8.2,2.6v-47.2l41.3-13.2v47.2l-9.1,2.9c-4.2,1.3-6.5,5.8-5.2,10
			c1.1,3.3,4.1,5.6,7.6,5.6c0.8,0,1.6-0.1,2.4-0.4l14.7-4.7c3.3-1,5.6-4.1,5.6-7.6v-58L428,74.9V250.1L428,250.1z"/>
	</g>
</g>
<g>
	<g>
		<path class="st0" d="M116,200c-4.4,0-8,3.6-8,8v24c0,4.4,3.6,8,8,8s8-3.6,8-8v-24C124,203.6,120.4,200,116,200z"/>
	</g>
</g>
<g>
	<g>
		<path class="st0" d="M148,208c-4.4,0-8,3.6-8,8v24c0,4.4,3.6,8,8,8s8-3.6,8-8v-24C156,211.6,152.4,208,148,208z"/>
	</g>
</g>
</svg>
