<?xml version="1.0" encoding="utf-8"?>
<!-- Generator: Adobe Illustrator 21.1.0, SVG Export Plug-In . SVG Version: 6.00 Build 0)  -->
<svg version="1.1" id="Capa_1" xmlns="http://www.w3.org/2000/svg" xmlns:xlink="http://www.w3.org/1999/xlink" x="0px" y="0px"
	 viewBox="0 0 380.6 380.6" style="enable-background:new 0 0 380.6 380.6;" xml:space="preserve">
<style type="text/css">
	.st0{fill:#0C397A;}
</style>
<g>
	<g>
		<path class="st0" d="M319.9,152.2h-48.1c-9.9,0-19.7,2.6-28.3,7.5c-7.4,4.2-13.7,9.9-18.6,16.8c-3.3-0.6-6.6-0.9-9.9-0.9h-48.1
			c-3.3,0-6.7,0.3-9.9,0.9c-4.9-6.9-11.3-12.6-18.6-16.8c-8.6-4.9-18.4-7.5-28.3-7.5H61.9c-32,0.1-57.8,26-57.9,57.9v52.6
			c0,3.4,2.8,6.2,6.2,6.2h98.6V316c0,3.4,2.8,6.2,6.2,6.2h151.6c3.4,0,6.2-2.8,6.2-6.2v-47.1h98.6c3.4,0,6.2-2.8,6.2-6.2v-52.6
			C377.6,178.2,351.8,152.4,319.9,152.2z M109.5,227.9v1.3c0,0.6,0,1.2,0,1.8v22.5v3h-93v-46.4c0.1-25.1,20.4-45.4,45.4-45.4H110
			c7.8,0,15.4,2,22.2,5.8c4.5,2.6,8.6,5.9,12,9.8C124.8,188.7,111.6,206.9,109.5,227.9z M260.3,253.5v56.4H121.4V253
			c0-0.5,0-21,0-21.4c0-0.7,0-1.5,0-2.2v-1.1c0-0.4,0-0.9,0-1.3v-1.4v-0.4v-0.5v-0.9l0.3-1l0.4-1.5l0.3-1
			c6.2-18.7,23.6-31.3,43.2-31.4l1.2-0.7H215c22.8,0.1,42.1,17,45.1,39.7c0,0.9,0,1.9,0.3,2.8C260.3,231.5,260.3,252.5,260.3,253.5z
			 M365.4,256.5h-92.6v-3.7c0-0.5,0-20.9,0-21.4s0-1,0-1.5c0-0.7,0-1.4,0-2.1v-0.6v-0.7v-1.3V225v-0.5V224v-0.3V223v-0.6v-0.3v-0.4
			v-0.4V221v-1v-0.4V219v-0.6l-0.3-1.1V217v-0.4v-0.3v-0.4v-0.6l-0.6-1.7c-5.6-14.8-17-26.8-31.6-33.1c2.6-3.8,5.7-7.2,9.3-10.1
			c6.8-3.8,14.4-5.8,22.2-5.8h48.1c25.1,0.1,45.4,20.4,45.4,45.4v46.5H365.4z"/>
	</g>
	<g>
		<g>
			<path class="st0" d="M116.8,67c-8.2-8.2-19.3-12.9-31-12.9C61.6,54.1,42,73.7,42,97.8c0,24.2,19.6,43.8,43.7,43.8
				s43.8-19.6,43.8-43.7C129.6,86.4,125,75.2,116.8,67z M108,120.1c-12.2,12.2-32.1,12.2-44.3,0s-12.2-32.1,0-44.3s32.1-12.2,44.3,0
				c5.9,5.9,9.2,13.8,9.2,22.2C117.2,106.2,113.9,114.2,108,120.1z"/>
		</g>
	</g>
	<g>
		<g>
			<path class="st0" d="M296,54.1c-24.2,0-43.8,19.6-43.8,43.7c0,11.6,4.6,22.7,12.8,30.9s19.3,12.9,31,12.9
				c24.2,0,43.8-19.6,43.8-43.7S320.1,54.2,296,54.1z M318.1,120c-12.2,12.2-32.1,12.2-44.3,0c-5.9-5.9-9.2-13.8-9.2-22.2
				c0-8.3,3.3-16.3,9.2-22.2c12.2-12.2,32.1-12.2,44.3,0C330.3,88,330.3,107.8,318.1,120z"/>
		</g>
	</g>
	<g>
		<g>
			<path class="st0" d="M221.8,90.2c-8.2-8.2-19.3-12.8-30.9-12.8c-11.6,0-22.8,4.6-31,12.9c-17,17.1-17,44.8,0.1,61.8
				s44.8,17,61.8-0.1S238.9,107.3,221.8,90.2z M190.9,152.6c-17.3,0-31.3-14-31.3-31.3s14-31.3,31.3-31.3c8.3,0,16.3,3.3,22.2,9.2
				c5.9,5.9,9.2,13.8,9.2,22.2C222.2,138.6,208.2,152.6,190.9,152.6z"/>
		</g>
	</g>
</g>
</svg>
