<?xml version="1.0" encoding="utf-8"?>
<!-- Generator: Adobe Illustrator 21.1.0, SVG Export Plug-In . SVG Version: 6.00 Build 0)  -->
<svg version="1.1" id="Capa_1" xmlns="http://www.w3.org/2000/svg" xmlns:xlink="http://www.w3.org/1999/xlink" x="0px" y="0px"
	 viewBox="0 0 512 512" style="enable-background:new 0 0 512 512;" xml:space="preserve">
<style type="text/css">
	.st0{fill:#FBD536;}
	.st1{fill:#0C397A;}
</style>
<g>
	<path class="st0" d="M402.9,171.3h19.8v-19.8h19.8c5.5,0,9.9-4.4,9.9-9.9v-39.7c0-5.5-4.4-9.9-9.9-9.9H393V72.1h59.5V52.3h-29.7
		V32.4H403v19.8h-19.8c-5.5,0-9.9,4.4-9.9,9.9v39.7c0,5.5,4.4,9.9,9.9,9.9h49.6v19.8h-59.5v19.8H403v20H402.9z"/>
	<path class="st1" d="M316.5,198.1c1.9,1.9,4.4,2.9,7.1,2.9h89.2c54.8,0,99.2-44.4,99.2-99.1S467.6,2.7,412.9,2.7
		c-54.8,0-99.2,44.4-99.2,99.1c0,22.9,7.9,45.1,22.4,62.8L316.6,184C312.7,187.9,312.6,194.2,316.5,198.1z M333.5,101.8
		c0-43.8,35.5-79.3,79.3-79.3s79.3,35.5,79.3,79.3s-35.5,79.3-79.3,79.3h-65.3l9.2-9.2c3.8-3.9,3.8-10.1,0-14
		C341.8,143.1,333.5,122.9,333.5,101.8z"/>
	<path class="st0" d="M10.3,195.5h88.4l48.5,48.5c4.1,4,10.6,3.9,14.6-0.1c1.9-1.9,2.9-4.5,2.9-7.2v-41.2h72
		c5.7,0,10.3-4.6,10.3-10.3v-175C247,4.6,242.4,0,236.7,0H10.3C4.6,0,0,4.6,0,10.3v175C0,190.9,4.6,195.5,10.3,195.5z M20.6,20.6
		h205.8V175h-72c-5.7,0-10.3,4.6-10.3,10.3V212l-33.9-33.9c-1.9-2-4.6-3.1-7.3-3.1H20.6V20.6z"/>
	<path class="st1" d="M145.3,318c-1.4-3.4-4.7-5.6-8.4-5.7h-27.4v-36.5c0-5-4.1-9.1-9.1-9.1H9.1c-5,0-9.1,4.1-9.1,9.1v164.3
		c0,5,4.1,9.1,9.1,9.1h91.3c5,0,9.1-4.1,9.1-9.1v-78.4l33.9-33.9C145.9,325.2,146.7,321.3,145.3,318z M93.9,351.6
		c-1.7,1.7-2.6,4-2.6,6.4v73h-73V285h73v36.5c0,5,4.1,9.1,9.1,9.1h14.5L93.9,351.6z"/>
	<path class="st1" d="M502.1,256h-98.7c-5.5,0-9.9,4.4-9.9,9.9v39.5h-29.6c-5.5,0-9.9,4.4-9.9,9.8c0,2.7,1,5.2,2.9,7.1l36.6,36.5
		v25.6c0,5.5,4.4,9.9,9.9,9.9h98.7c5.5,0,9.9-4.4,9.9-9.9V265.9C512,260.4,507.6,256,502.1,256z M492.3,374.5h-79v-19.7
		c0-2.6-1-5.1-2.9-7l-22.7-22.6h15.7c5.5,0,9.9-4.4,9.9-9.9v-39.5h79V374.5L492.3,374.5z"/>
	<rect x="51.5" y="51.5" class="st1" width="144.1" height="20.6"/>
	<rect x="51.5" y="92.6" class="st1" width="144.1" height="20.6"/>
	<rect x="51.5" y="133.8" class="st1" width="144.1" height="20.6"/>
	<g>
		<g>
			<g>
				<path class="st1" d="M303.7,365.8c-0.7-0.2-1.5-0.3-2.2-0.4c11-11.5,17.7-27.1,17.7-44.2v-52.6c0-0.5,0-1-0.1-1.4
					c0.1-1,0.1-1.9,0.1-2.9V231c0-5.5-4.5-10-10-10h-67.1c-28.2,0-51.2,23-51.2,51.2v49c0,17.1,6.7,32.7,17.7,44.2
					c-0.7,0-1.5,0.2-2.2,0.4c-47.2,4.3-84.4,44.1-84.4,92.5V501c0,5.5,4.5,10,10,10h246.1c5.5,0,10-4.5,10-10v-42.7
					C388.1,409.9,351,370.1,303.7,365.8z M210.9,285v-12.7c0-17.2,14-31.2,31.2-31.2h57.1v23.3c0,11.7-9.5,21.3-21.3,21.3h-67
					C210.9,285.7,210.9,285,210.9,285z M210.9,305.6h67c7.8,0,15-2.2,21.3-5.9v21.5c0,24.3-19.8,44.1-44.1,44.1S211,345.5,211,321.2
					v-15.6H210.9z M276.8,385.4L255,407.2l-21.8-21.8L276.8,385.4L276.8,385.4z M368.1,491L368.1,491H142v-20h41.5
					c5.5,0,10-4.5,10-10s-4.5-10-10-10h-41.1c3.4-33.7,29.8-60.7,63.3-65l42.4,42.4c1.9,1.9,4.4,2.9,7.1,2.9s5.2-1.1,7.1-2.9
					l42.4-42.4c35.8,4.6,63.6,35.2,63.6,72.2V491H368.1z"/>
			</g>
		</g>
		<g>
			<g>
				<path class="st0" d="M230.6,453.9c-1.9-1.9-4.4-2.9-7.1-2.9s-5.2,1.1-7.1,2.9c-1.9,1.8-2.9,4.4-2.9,7.1s1.1,5.2,2.9,7.1
					c1.9,1.9,4.4,2.9,7.1,2.9s5.2-1.1,7.1-2.9c1.9-1.8,2.9-4.4,2.9-7.1S232.4,455.8,230.6,453.9z"/>
			</g>
		</g>
	</g>
</g>
</svg>
