<?xml version="1.0" encoding="utf-8"?>
<!-- Generator: Adobe Illustrator 21.1.0, SVG Export Plug-In . SVG Version: 6.00 Build 0)  -->
<svg version="1.1" id="Layer_1" xmlns="http://www.w3.org/2000/svg" xmlns:xlink="http://www.w3.org/1999/xlink" x="0px" y="0px"
	 viewBox="0 0 512 512" style="enable-background:new 0 0 512 512;" xml:space="preserve">
<style type="text/css">
	.st0{fill:#0C397A;}
	.st1{fill:#FBD536;}
</style>
<g>
	<g>
		<path class="st0" d="M476.2,196.4l-13.3-53c3.6-0.8,6.3-4,6.3-7.8V127c0-18.6-15.1-33.7-33.7-33.7h-60.4V75.7
			c0-9.1-7.4-16.6-16.6-16.6H50.8c-9.1,0-16.6,7.4-16.6,16.6V221c0,4.4,3.6,8,8,8s8-3.6,8-8V75.6c0-0.3,0.2-0.5,0.5-0.5h307.8
			c0.3,0,0.5,0.2,0.5,0.5V221c0,4.4,3.6,8,8,8s8-3.6,8-8v-9.1h94.6l0,0l0,0c11.6,0,21.5,7.6,24.9,18.2h-24.9c-4.4,0-8,3.6-8,8v17.1
			c0,13.9,11.3,25.1,25.1,25.1h9.1v35.3h-21c-6.9-19.9-25.8-34.2-48-34.2s-41.1,14.3-48,34.2h-3.9v-60.4c0-4.4-3.6-8-8-8s-8,3.6-8,8
			v60.4H192.8c-6.9-19.9-25.8-34.2-48-34.2s-41.1,14.3-48,34.2h-46c-0.3,0-0.5-0.2-0.5-0.5v-17.6H85c4.4,0,8-3.6,8-8s-3.6-8-8-8H8
			c-4.4,0-8,3.6-8,8s3.6,8,8,8h26.2v17.6c0,9.1,7.4,16.6,16.6,16.6h43.3c0,0.2,0,0.4,0,0.5c0,28,22.8,50.8,50.8,50.8
			s50.8-22.8,50.8-50.8c0-0.2,0-0.4,0-0.5h180.7c0,0.2,0,0.4,0,0.5c0,28,22.8,50.8,50.8,50.8s50.8-22.8,50.8-50.8c0-0.2,0-0.4,0-0.5
			h26c4.4,0,8-3.6,8-8v-85.5C512,217,496.4,199.4,476.2,196.4z M375.2,109.3h60.4c9.7,0,17.6,7.9,17.6,17.6v0.5h-78V109.3z
			 M375.2,195.9v-52.4h71.2l13.1,52.4H375.2L375.2,195.9z M144.8,366.9c-19.2,0-34.7-15.6-34.7-34.7s15.6-34.7,34.7-34.7
			s34.7,15.6,34.7,34.7S164,366.9,144.8,366.9z M427,366.9c-19.2,0-34.7-15.6-34.7-34.7s15.6-34.7,34.7-34.7
			c19.2,0,34.7,15.6,34.7,34.7S446.2,366.9,427,366.9z M496,264.3h-9.1c-5,0-9.1-4.1-9.1-9.1v-9.1H496V264.3L496,264.3z"/>
	</g>
</g>
<g>
	<g>
		<path class="st0" d="M144.8,315.6c-9.1,0-16.6,7.4-16.6,16.6s7.4,16.6,16.6,16.6c9.1,0,16.6-7.4,16.6-16.6
			C161.4,323,154,315.6,144.8,315.6z"/>
	</g>
</g>
<g>
	<g>
		<path class="st0" d="M427,315.6c-9.1,0-16.6,7.4-16.6,16.6s7.4,16.6,16.6,16.6s16.6-7.4,16.6-16.6S436.2,315.6,427,315.6z"/>
	</g>
</g>
<g>
	<g>
		<path class="st1" d="M333,281.4H213.2c-4.4,0-8,3.6-8,8s3.6,8,8,8H333c4.4,0,8-3.6,8-8S337.4,281.4,333,281.4z"/>
	</g>
</g>
<g>
	<g>
		<path class="st1" d="M127.7,247.2H25.1c-4.4,0-8,3.6-8,8c0,4.4,3.6,8,8,8h102.6c4.4,0,8-3.6,8-8S132.2,247.2,127.7,247.2z"/>
	</g>
</g>
<path class="st1" d="M205.6,159.7c-7.1,0-12.9-5.8-12.9-12.9c0-7.1,5.8-12.9,12.9-12.9c4.6,0,9.4,2.3,14,6.8
	c5.1,5,13.3,4.8,18.3-0.3s4.8-13.3-0.3-18.3c-6.6-6.4-13.1-9.9-19-11.9V95.1c0-7.1-5.8-12.9-12.9-12.9c-7.1,0-12.9,5.8-12.9,12.9
	v15.2c-15.1,5.3-25.9,19.7-25.9,36.6c0,21.4,17.4,38.8,38.8,38.8c7.1,0,12.9,5.8,12.9,12.9c0,7.1-5.8,12.9-12.9,12.9
	c-5.5,0-11.5-3.5-16.8-9.8c-4.6-5.5-12.8-6.2-18.2-1.6c-5.5,4.6-6.2,12.8-1.6,18.2c6.9,8.2,15,14,23.7,16.8v15.1
	c0,7.1,5.8,12.9,12.9,12.9c7.1,0,12.9-5.8,12.9-12.9V235c15.1-5.3,25.9-19.7,25.9-36.6C244.4,177.1,227,159.7,205.6,159.7z"/>
<g>
	<g>
		<path class="st0" d="M395.1,415.2H212.5c-4.4,0-8,3.6-8,8s3.6,8,8,8h182.6c4.4,0,8-3.6,8-8S399.6,415.2,395.1,415.2z"/>
	</g>
</g>
<g>
	<g>
		<path class="st1" d="M245.8,453.2h-82.6c-4.4,0-8,3.6-8,8s3.6,8,8,8h82.6c4.4,0,8-3.6,8-8S250.3,453.2,245.8,453.2z"/>
	</g>
</g>
<g>
	<g>
		<path class="st0" d="M107.4,453.2h-2.6c-4.4,0-8,3.6-8,8s3.6,8,8,8h2.6c4.4,0,8-3.6,8-8S111.9,453.2,107.4,453.2z"/>
	</g>
</g>
</svg>
