<?xml version="1.0" encoding="utf-8"?>
<!-- Generator: Adobe Illustrator 21.1.0, SVG Export Plug-In . SVG Version: 6.00 Build 0)  -->
<svg version="1.1" id="Capa_1" xmlns="http://www.w3.org/2000/svg" xmlns:xlink="http://www.w3.org/1999/xlink" x="0px" y="0px"
	 viewBox="0 0 472 472" style="enable-background:new 0 0 472 472;" xml:space="preserve">
<style type="text/css">
	.st0{fill:#0C397A;}
</style>
<g>
	<g>
		<path class="st0" d="M64,264c-4.4,0-8,3.6-8,8v32c0,4.4,3.6,8,8,8s8-3.6,8-8v-32C72,267.6,68.4,264,64,264z"/>
	</g>
</g>
<g>
	<g>
		<path class="st0" d="M96,280c-4.4,0-8,3.6-8,8v32c0,4.4,3.6,8,8,8s8-3.6,8-8v-32C104,283.6,100.4,280,96,280z"/>
	</g>
</g>
<g>
	<path class="st0" d="M444.2,349.4c-7.8-26.9-26.8-49-52.2-60.6V112c0-2.8-1.5-5.4-3.9-6.9l-176-104c-2.5-1.5-5.6-1.5-8.1,0
		l-176,104c-0.2,0.1-0.3,0.2-0.4,0.4s-0.3,0.2-0.5,0.4c-0.7,0.5-1.3,1.2-1.8,2c0,0.1-0.1,0.1-0.1,0.1v0.1c-0.5,0.8-0.8,1.7-0.9,2.6
		c0,0.2-0.1,0.5-0.1,0.7S24,111.8,24,112v208c0,2.8,1.5,5.4,3.9,6.9l176,104c0.2,0.1,0.4,0.2,0.6,0.3c0.2,0.1,0.4,0.2,0.7,0.3
		c1.8,0.7,3.7,0.7,5.5,0c0.2-0.1,0.5-0.2,0.7-0.3c0.2-0.1,0.4-0.2,0.6-0.3l47.8-28.2c14.7,50.9,67.9,80.3,118.8,65.6
		C429.6,453.5,458.9,400.3,444.2,349.4z M208,17.3l41.6,24.6l-61.7,36.4c-3.8,2.2-5.1,7.2-2.8,11s7.2,5.1,11,2.8l69.3-40.9L307,75.8
		l-160.3,94.7l-41.6-24.6l67-39.6c3.8-2.2,5.1-7.2,2.8-11s-7.2-5.1-11-2.8l-74.6,44.1L47.7,112L208,17.3z M138.7,184.3v53.4
		l-41.3-24.4v-53.4L138.7,184.3z M259.2,351.3c-2.1,8.1-3.2,16.4-3.2,24.7c0,3.3,0.2,6.7,0.5,10L216,410v-26c0-4.4-3.6-8-8-8
		s-8,3.6-8,8v26L40,315.4V126l41.3,24.4v67.4c0,2.8,1.5,5.5,3.9,6.9l57.3,33.9c1.2,0.7,2.6,1.1,4.1,1.1c4.4,0,8-3.6,8-8v-58
		l45.3,26.8V352c0,4.4,3.6,8,8,8s8-3.6,8-8V220.6l145-85.7c3.8-2.2,5.1-7.2,2.8-11s-7.2-5.1-11-2.8L208,206.7l-45.6-27L322.7,85
		l53.3,31.5v166.6C324.9,269.7,272.6,300.2,259.2,351.3z M352,456c-44.2,0-80-35.8-80-80s35.8-80,80-80s80,35.8,80,80
		S396.2,456,352,456z"/>
</g>
<g>
	<g>
		<path class="st0" d="M396.3,342.4c-4.7-4.5-12.1-4.5-16.7,0L333.9,388l-9.5-9.5c-4.8-4.6-12.4-4.5-17,0.3
			c-4.5,4.7-4.5,12.1,0,16.7l18.1,18.1c4.7,4.7,12.3,4.7,17,0l54.2-54.2C401.3,354.6,401.1,347,396.3,342.4z"/>
	</g>
</g>
</svg>
