<?xml version="1.0" encoding="utf-8"?>
<!-- Generator: Adobe Illustrator 21.1.0, SVG Export Plug-In . SVG Version: 6.00 Build 0)  -->
<svg version="1.1" id="Layer_1" xmlns="http://www.w3.org/2000/svg" xmlns:xlink="http://www.w3.org/1999/xlink" x="0px" y="0px"
	 viewBox="0 0 512 512" style="enable-background:new 0 0 512 512;" xml:space="preserve">
<style type="text/css">
	.st0{fill:#FBD536;}
	.st1{fill:#0C397A;}
</style>
<path class="st0" d="M506,187.3l-38.8-7.7c-3.5-13.1-8.7-25.7-15.5-37.5l22-32.9c2-3,1.6-6.9-0.9-9.5l-33.5-33.5
	c-2.5-2.5-6.5-2.9-9.5-0.9l-32.9,22c-11.8-6.9-24.3-12.1-37.5-15.5L351.7,33c-0.7-3.5-3.8-6-7.4-6h-47.4c-3.6,0-6.7,2.5-7.4,6
	l-7.7,38.8c-13.1,3.5-25.7,8.7-37.5,15.5l-32.9-22c-3-2-6.9-1.6-9.5,0.9l-33.5,33.5c-2.5,2.5-2.9,6.5-0.9,9.5l22,32.9
	c-4.5,7.8-8.4,15.9-11.4,24.4H64.2c-10.6,0-19.3,8.6-19.3,19.3v65.3c0,4.1,3.4,7.5,7.5,7.5s7.5-3.4,7.5-7.5v-65.3
	c0-2.4,1.9-4.3,4.3-4.3h34v38.2c0,4.1,3.4,7.5,7.5,7.5h45.7c4.1,0,7.5-3.4,7.5-7.5v-38.2h34c2.4,0,4.3,1.9,4.3,4.3v128.6
	c0,2.4-1.9,4.3-4.3,4.3H64.2c-2.4,0-4.3-1.9-4.3-4.3v-30.7c0-4.1-3.4-7.5-7.5-7.5s-7.5,3.4-7.5,7.5v30.7c0,1.5,0.2,2.9,0.5,4.3H19.3
	C8.6,318.7,0,327.4,0,338v128.6c0,10.6,8.6,19.3,19.3,19.3h26.4c4.1,0,7.5-3.4,7.5-7.5c0-4.1-3.4-7.5-7.5-7.5H19.3
	c-2.4,0-4.3-1.9-4.3-4.3V338c0-2.4,1.9-4.3,4.3-4.3h34v38.2c0,4.1,3.4,7.5,7.5,7.5h45.7c4.1,0,7.5-3.4,7.5-7.5v-38.2h34
	c2.4,0,4.3,1.9,4.3,4.3v128.6c0,2.4-1.9,4.3-4.3,4.3H78.3c-4.1,0-7.5,3.4-7.5,7.5c0,4.1,3.4,7.5,7.5,7.5h69.6c4.4,0,8.5-1.5,11.8-4
	c3.3,2.5,7.3,4,11.8,4h128.6c10.6,0,19.3-8.6,19.3-19.3v-56.8h25c3.6,0,6.7-2.5,7.4-6l7.7-38.8c13.1-3.5,25.7-8.7,37.5-15.5l32.9,22
	c3,2,6.9,1.6,9.5-0.9l33.5-33.5c2.5-2.5,2.9-6.5,0.9-9.5l-22-32.9c6.9-11.8,12.1-24.3,15.5-37.5l38.8-7.7c3.5-0.7,6-3.8,6-7.4v-47.4
	C512,191.1,509.5,188,506,187.3z M143.8,212.3h-30.7v-30.7h30.7V212.3z M220.4,333.7h30.7v30.7h-30.7V333.7z M98.9,364.4H68.2v-30.7
	h30.7V364.4z M304.4,466.6c0,2.4-1.9,4.3-4.3,4.3H171.4c-2.4,0-4.3-1.9-4.3-4.3c0,0,0,0,0,0V338c0,0,0,0,0,0c0-2.4,1.9-4.3,4.3-4.3
	h34v38.2c0,4.1,3.4,7.5,7.5,7.5h45.7c4.1,0,7.5-3.4,7.5-7.5v-38.2h34c2.4,0,4.3,1.9,4.3,4.3V466.6z M497,236l-37.4,7.4
	c-2.9,0.6-5.2,2.8-5.8,5.7c-3.4,14.8-9.2,28.9-17.3,41.8c-1.6,2.5-1.5,5.7,0.1,8.1l21.2,31.7l-24.8,24.8l-31.7-21.2
	c-2.5-1.6-5.6-1.7-8.2-0.1c-12.9,8.1-27,13.9-41.8,17.3c-2.9,0.7-5.1,2.9-5.7,5.8l-7.4,37.4h-18.8V338c0-10.6-8.6-19.3-19.3-19.3
	h-88.5c0.3-1.4,0.5-2.8,0.5-4.3V185.8c0-10.2-7.9-18.5-17.9-19.2c2.9-7.2,6.5-14.1,10.6-20.7c1.6-2.5,1.5-5.7-0.1-8.2l-21.2-31.7
	l24.8-24.8l31.7,21.2c2.5,1.6,5.6,1.7,8.1,0.1c12.9-8.1,27-13.9,41.8-17.3c2.9-0.7,5.1-2.9,5.7-5.8L303,42h35.1l7.4,37.4
	c0.6,2.9,2.8,5.2,5.7,5.8c14.8,3.4,28.9,9.2,41.8,17.3c2.5,1.6,5.7,1.5,8.1-0.1l31.7-21.2l24.8,24.8l-21.2,31.7
	c-1.6,2.5-1.7,5.6-0.1,8.2c8.1,12.9,13.9,27,17.3,41.8c0.7,2.9,2.9,5.1,5.8,5.7l37.4,7.4V236z"/>
<path class="st0" d="M366.5,176.6c-3.4,2.4-4.2,7.1-1.8,10.5c6.5,9.2,10,20,10,31.3c0,29.8-24.3,54.1-54.1,54.1
	c-29.8,0-54.1-24.3-54.1-54.1s24.3-54.1,54.1-54.1c7.5,0,14.9,1.5,21.7,4.6c3.8,1.7,8.2-0.1,9.9-3.8c1.7-3.8-0.1-8.2-3.8-9.9
	c-8.8-3.9-18.1-5.8-27.8-5.8c-38.1,0-69.1,31-69.1,69.1s31,69.1,69.1,69.1s69.1-31,69.1-69.1c0-14.4-4.4-28.3-12.8-40
	C374.5,175,369.8,174.2,366.5,176.6z"/>
<path class="st1" d="M320.6,119.9c-54.3,0-98.5,44.2-98.5,98.5s44.2,98.5,98.5,98.5c54.3,0,98.5-44.2,98.5-98.5
	S374.9,119.9,320.6,119.9z M320.6,301.9c-46,0-83.5-37.4-83.5-83.5s37.4-83.5,83.5-83.5c46,0,83.5,37.4,83.5,83.5
	C404.1,264.4,366.6,301.9,320.6,301.9z"/>
<path class="st1" d="M131.1,454.8c4.1,0,7.5-3.4,7.5-7.5v-30.8c0-4.1-3.4-7.5-7.5-7.5H87.6c-4.1,0-7.5,3.4-7.5,7.5v30.8
	c0,4.1,3.4,7.5,7.5,7.5H131.1z M95.1,424h28.5v15.8H95.1V424z"/>
<path class="st1" d="M283.3,409h-43.5c-4.1,0-7.5,3.4-7.5,7.5v30.8c0,4.1,3.4,7.5,7.5,7.5h43.5c4.1,0,7.5-3.4,7.5-7.5v-30.8
	C290.8,412.3,287.5,409,283.3,409z M275.8,439.8h-28.5V424h28.5V439.8z"/>
<path class="st1" d="M176,302.6c4.1,0,7.5-3.4,7.5-7.5v-30.8c0-4.1-3.4-7.5-7.5-7.5h-43.5c-4.1,0-7.5,3.4-7.5,7.5v30.8
	c0,4.1,3.4,7.5,7.5,7.5H176z M140,271.8h28.5v15.8H140V271.8z"/>
<path class="st1" d="M319.4,409.8h25c3.6,0,6.7-2.5,7.4-6l7.7-38.8c13.1-3.5,25.7-8.7,37.5-15.5l32.9,22c3,2,6.9,1.6,9.5-0.9
	l33.5-33.5c2.5-2.5,2.9-6.5,0.9-9.5l-22-32.9c6.9-11.8,12.1-24.3,15.5-37.5l38.8-7.7c3.5-0.7,6-3.8,6-7.4v-47.4c0-3.6-2.5-6.7-6-7.4
	l-38.8-7.7c-3.5-13.1-8.7-25.7-15.5-37.5l22-32.9c2-3,1.6-6.9-0.9-9.5l-33.5-33.5c-2.5-2.5-6.5-2.9-9.5-0.9l-32.9,22
	c-11.8-6.9-24.3-12.1-37.5-15.5L351.7,33c-0.7-3.5-3.8-6-7.4-6h-47.4c-3.6,0-6.7,2.5-7.4,6l-7.7,38.8c-13.1,3.5-25.7,8.7-37.5,15.5
	l-32.9-22c-3-2-6.9-1.6-9.5,0.9l-33.5,33.5c-2.5,2.5-2.9,6.5-0.9,9.5l22,32.9c-4.5,7.8-8.4,15.9-11.4,24.4l16.1,0.1
	c2.9-7.2,6.5-14.1,10.6-20.7c1.6-2.5,1.5-5.7-0.1-8.2l-21.2-31.7l24.8-24.8l31.7,21.2c2.5,1.6,5.6,1.7,8.1,0.1
	c12.9-8.1,27-13.9,41.8-17.3c2.9-0.7,5.1-2.9,5.7-5.8L303,42h35.1l7.4,37.4c0.6,2.9,2.8,5.2,5.7,5.8c14.8,3.4,28.9,9.2,41.8,17.3
	c2.5,1.6,5.7,1.5,8.1-0.1l31.7-21.2l24.8,24.8l-21.2,31.7c-1.6,2.5-1.7,5.6-0.1,8.2c8.1,12.9,13.9,27,17.3,41.8
	c0.7,2.9,2.9,5.1,5.8,5.7l37.4,7.4V236l-37.4,7.4c-2.9,0.6-5.2,2.8-5.8,5.7c-3.4,14.8-9.2,28.9-17.3,41.8c-1.6,2.5-1.5,5.7,0.1,8.1
	l21.2,31.7l-24.8,24.8l-31.7-21.2c-2.5-1.6-5.6-1.7-8.2-0.1c-12.9,8.1-27,13.9-41.8,17.3c-2.9,0.7-5.1,2.9-5.7,5.8l-7.4,37.4h-18.8
	V409.8z"/>
</svg>
