<?xml version="1.0" encoding="utf-8"?>
<!-- Generator: Adobe Illustrator 21.1.0, SVG Export Plug-In . SVG Version: 6.00 Build 0)  -->
<svg version="1.1" id="Capa_1" xmlns="http://www.w3.org/2000/svg" xmlns:xlink="http://www.w3.org/1999/xlink" x="0px" y="0px"
	 viewBox="0 0 480 480" style="enable-background:new 0 0 480 480;" xml:space="preserve">
<style type="text/css">
	.st0{fill:#0C397A;}
	.st1{fill:#FBD536;}
</style>
<g>
	<g>
		<path class="st0" d="M211.3,111.6l-33.6-34.9V24.1c0-3.9-3.2-7.1-7.1-7.1l0,0h-28.4c-3.9,0-7.1,3.2-7.1,7.1l0,0v15.2l-23.8-20.5
			c-2.8-2.4-6.8-2.3-9.5,0.2L2.2,111.4c-2.8,2.7-3,7.2-0.4,10c1.3,1.4,3.2,2.3,5.2,2.3h28.4V209c0,3.9,3.2,7.1,7.1,7.1l0,0h127.9
			c3.9,0,7.1-3.2,7.1-7.1l0,0v-85.3h28.4c3.9,0,7.1-3.2,7.1-7.1C213.2,114.6,212.5,112.9,211.3,111.6z M120.8,201.8H92.4v-35.5
			c0-7.8,6.4-14.2,14.2-14.2s14.2,6.4,14.2,14.2C120.8,166.3,120.8,201.8,120.8,201.8z M170.6,109.4c-3.9,0-7.1,3.2-7.1,7.1l0,0
			v85.3H135v-35.5c0-15.7-12.7-28.4-28.4-28.4s-28.4,12.7-28.4,28.4v35.5H49.7v-85.3c0-3.9-3.2-7.1-7.1-7.1l0,0H25.2l81.6-75.8
			l30.7,26.7c2.9,2.6,7.5,2.2,10-0.7c1.2-1.3,1.7-2.9,1.7-4.6V31.2h14.2v48.3c0,1.9,0.7,3.6,2,4.9l24,25H170.6z"/>
	</g>
</g>
<g>
	<g>
		<path class="st0" d="M368,256c-61.9,0-112,50.1-112,112s50.1,112,112,112s112-50.1,112-112C479.9,306.2,429.8,256.1,368,256z
			 M416,451c-29.7,17.3-66.3,17.3-96,0v-11c0-26.5,21.5-48,48-48s48,21.5,48,48V451z M400,344c0,17.7-14.3,32-32,32s-32-14.3-32-32
			H400z M340.5,328c8.7-15.2,28.1-20.5,43.3-11.8c4.9,2.8,9,6.9,11.8,11.8H340.5z M439.6,431.8c-2.4,2.7-4.9,5.2-7.6,7.6l0,0
			c-0.3-24.1-14-46-35.7-56.7c12.4-9,19.7-23.4,19.7-38.7h16v-16h-18.8c-8.8-25-36.2-38.1-61.2-29.3c-25,8.8-38.1,36.2-29.3,61.2
			c3.2,9.1,9.1,17.1,17,22.8c-21.6,10.7-35.4,32.6-35.7,56.7c-39.5-35.3-42.9-96-7.6-135.6s96-42.9,135.6-7.6
			S474.9,392.2,439.6,431.8z"/>
	</g>
</g>
<g>
	<g>
		<path class="st1" d="M466.4,49.1L466.4,49.1H339.6c-5.8,0-10.6,4.8-10.6,10.6l0,0v105.7c0,5.8,4.8,10.6,10.6,10.6l0,0h126.9
			c5.8,0,10.6-4.8,10.6-10.6l0,0V59.7C477,53.9,472.2,49.1,466.4,49.1z M392.4,70.3h21.1v21.1h-21.1V70.3z M455.9,154.9H350.1V70.3
			h21.1V102c0,5.8,4.8,10.6,10.6,10.6l0,0h42.3c5.8,0,10.6-4.8,10.6-10.6l0,0V70.3h21.1L455.9,154.9L455.9,154.9z"/>
	</g>
</g>
<g>
	<g>
		<path class="st1" d="M216,336L216,336H88c-4.4,0-8,3.6-8,8l0,0v16H32c-2.8,0-5.4,1.5-6.9,3.9l-19.2,32l0,0l-4.8,8
			C0.4,405.1,0,406.6,0,408v48c0,4.4,3.6,8,8,8l0,0h17.5c4.3,12.4,17.9,19,30.4,14.7c6.9-2.4,12.3-7.8,14.7-14.7h74.9
			c4.3,12.4,17.9,19,30.4,14.7c6.9-2.4,12.3-7.8,14.7-14.7H216c4.4,0,8-3.6,8-8l0,0V344C224,339.6,220.4,336,216,336z M36.5,376H48
			v16H26.9L36.5,376z M48,464c-4.4,0-8-3.6-8-8s3.6-8,8-8s8,3.6,8,8S52.4,464,48,464z M80,448h-9.5c-4.3-12.4-17.9-19-30.4-14.7
			c-6.9,2.4-12.3,7.8-14.7,14.7H16v-37.8l1.3-2.2H56c4.4,0,8-3.6,8-8l0,0v-24h16V448L80,448z M168,464c-4.4,0-8-3.6-8-8s3.6-8,8-8
			s8,3.6,8,8S172.4,464,168,464z M208,448h-17.5c-4.3-12.4-17.9-19-30.4-14.7c-6.9,2.4-12.3,7.8-14.7,14.7H96v-96h112V448z"/>
	</g>
</g>
<g>
	<g>
		<path class="st0" d="M309,111h-44.7l18.3-18.3l-11.3-11.3l-32,32c-3.1,3.1-3.1,8.2,0,11.3l0,0l32,32l11.3-11.3L264.3,127H309V111
			L309,111z"/>
	</g>
</g>
<g>
	<g>
		<rect x="397" y="200" class="st0" width="16" height="48"/>
	</g>
</g>
</svg>
