<?xml version="1.0" encoding="utf-8"?>
<!-- Generator: Adobe Illustrator 21.1.0, SVG Export Plug-In . SVG Version: 6.00 Build 0)  -->
<svg version="1.1" id="Capa_1" xmlns="http://www.w3.org/2000/svg" xmlns:xlink="http://www.w3.org/1999/xlink" x="0px" y="0px"
	 viewBox="0 0 473.8 473.8" style="enable-background:new 0 0 473.8 473.8;" xml:space="preserve">
<style type="text/css">
	.st0{fill:#0C397A;}
</style>
<g>
	<path class="st0" d="M446.1,149.1c-13.7-14.9-33.3-23.1-55-23.1h-52.4V97.7c0-6.9-5.6-12.5-12.5-12.5H76.9
		c-6.9,0-12.5,5.6-12.5,12.5v43.5H15.8c-6.9,0-12.5,5.6-12.5,12.5s5.6,12.5,12.5,12.5h60.7c0.1,0,0.2,0,0.3,0c0,0,0,0,0.1,0
		c6.9,0,12.5-5.6,12.5-12.5v-43.5h224.4v28.3V306H196.3c-0.5,0-1,0-1.5,0.1c-6.3-15.4-21.3-26.4-38.9-26.4
		c-17.7,0-32.8,11-38.9,26.6c-1-0.2-1.8-0.3-2.7-0.3H89.5v-43.6c0-6.9-5.6-12.5-12.5-12.5c-0.2,0-0.4,0-0.7,0c-0.2,0-0.3,0-0.5,0
		h-60c-6.9,0-12.5,5.6-12.5,12.5s5.6,12.5,12.5,12.5h48.6v43.5c0,6.9,5.6,12.5,12.5,12.5H114c0.3,0,0.5,0,0.9,0
		c4.2,18.8,20.9,32.7,40.9,32.7s36.7-13.9,40.9-32.7h129.7h20c4.3,18.7,20.9,32.7,40.9,32.7s36.7-13.9,40.9-32.7H456
		c6.9,0,12.5-5.6,12.5-12.5V214.6C468.5,187.7,460.7,164.9,446.1,149.1z M155.7,338.7c-9.3,0-16.9-7.6-16.9-16.9s7.6-16.9,16.9-16.9
		s16.9,7.6,16.9,16.9C172.8,331,165.2,338.7,155.7,338.7z M387.2,338.7c-9.3,0-16.9-7.6-16.9-16.9s7.6-16.9,16.9-16.9
		s16.9,7.6,16.9,16.9C404,331,396.5,338.7,387.2,338.7z M443.6,305.9h-17.5c-6.3-15.3-21.3-26.2-38.8-26.2s-32.6,10.9-38.8,26.2H339
		V151h52.4c32.8,0,52.4,23.8,52.4,63.7V306h-0.2V305.9z"/>
	<path class="st0" d="M166.8,232.7c-5.2,5.2-5.2,13.5,0,18.6c2.5,2.5,5.9,3.8,9.4,3.8s6.7-1.3,9.4-3.8l33.9-33.9l0.1-0.1
		c0.2-0.3,0.6-0.6,0.8-0.9c0.1-0.2,0.2-0.3,0.3-0.6c0.1-0.2,0.2-0.3,0.5-0.6c0.1-0.2,0.2-0.5,0.3-0.7s0.2-0.3,0.3-0.6
		c0.1-0.2,0.2-0.5,0.3-0.7s0.2-0.3,0.2-0.6c0.1-0.2,0.1-0.5,0.2-0.7c0.1-0.2,0.1-0.5,0.2-0.6c0.1-0.2,0.1-0.5,0.1-0.7
		s0.1-0.5,0.1-0.7s0.1-0.5,0.1-0.8c0-0.2,0.1-0.3,0.1-0.6c0.1-0.9,0.1-1.7,0-2.7c0-0.2,0-0.3-0.1-0.6c0-0.2-0.1-0.5-0.1-0.8
		c0-0.2-0.1-0.5-0.1-0.7s-0.1-0.5-0.1-0.7c-0.1-0.2-0.1-0.5-0.2-0.6c-0.1-0.2-0.1-0.5-0.2-0.7c-0.1-0.2-0.2-0.3-0.2-0.6
		c-0.1-0.2-0.2-0.5-0.3-0.7s-0.2-0.3-0.3-0.6c-0.1-0.2-0.2-0.5-0.3-0.7s-0.2-0.3-0.5-0.6c-0.1-0.2-0.2-0.3-0.3-0.6
		c-0.2-0.3-0.6-0.6-0.8-0.9l-0.1-0.1l-32.3-32.3c-5.2-5.2-13.5-5.2-18.6,0c-5.2,5.2-5.2,13.5,0,18.6l9.7,9.7H27.7
		c-7.3,0-13.2,5.9-13.2,13.2s5.9,13.2,13.2,13.2h150.4L166.8,232.7z"/>
	<path class="st0" d="M408.3,430.5c-3.7,3.7-3.7,9.8,0,13.7c1.9,1.9,4.4,2.9,6.7,2.9c2.5,0,4.9-1,6.7-2.9l24.6-24.6l0,0
		c0.2-0.2,0.3-0.3,0.5-0.7c0-0.2,0.2-0.2,0.2-0.3c0-0.2,0.2-0.2,0.3-0.3c0-0.2,0.2-0.3,0.2-0.5s0.2-0.2,0.2-0.3
		c0-0.2,0.2-0.3,0.2-0.5s0.2-0.2,0.2-0.3c0-0.2,0-0.3,0.2-0.5c0-0.2,0-0.3,0.2-0.3c0-0.2,0-0.3,0-0.5s0-0.3,0-0.5s0-0.3,0-0.5
		s0-0.2,0-0.3c0-0.7,0-1.3,0-1.9c0-0.2,0-0.2,0-0.3c0-0.2,0-0.3,0-0.5s0-0.3,0-0.5s0-0.3,0-0.5s0-0.3-0.2-0.3c0-0.2,0-0.3-0.2-0.5
		c0-0.2-0.2-0.2-0.2-0.3c0-0.2-0.2-0.3-0.2-0.5s-0.2-0.2-0.2-0.3c0-0.2-0.2-0.3-0.2-0.5s-0.2-0.2-0.3-0.3c0-0.2-0.2-0.2-0.2-0.3
		c-0.2-0.2-0.3-0.3-0.5-0.7l0,0l-23.4-23.4c-3.7-3.7-9.8-3.7-13.7,0c-3.7,3.7-3.7,9.8,0,13.7l7.1,7.1H253c-5.2,0-9.6,4.4-9.6,9.6
		s4.4,9.6,9.6,9.6h163.2L408.3,430.5z"/>
</g>
</svg>
