<?xml version="1.0" encoding="utf-8"?>
<!-- Generator: Adobe Illustrator 21.1.0, SVG Export Plug-In . SVG Version: 6.00 Build 0)  -->
<svg version="1.1" id="Capa_1" xmlns="http://www.w3.org/2000/svg" xmlns:xlink="http://www.w3.org/1999/xlink" x="0px" y="0px"
	 viewBox="0 0 424 424" style="enable-background:new 0 0 424 424;" xml:space="preserve">
<style type="text/css">
	.st0{fill:#0C397A;}
</style>
<g>
	<g>
		<path class="st0" d="M212,126.6c-46.9,0-76,24-76,62.9c0,4.4,3.6,8,8,8h136c4.4,0,8-3.6,8-8C288,150.6,258.9,126.6,212,126.6z
			 M152.6,181.4c5.3-35.9,46.3-38.9,59.4-38.9s54.2,3,59.4,38.9H152.6z"/>
	</g>
</g>
<g>
	<g>
		<path class="st0" d="M212,42.6c-21,0-38,17-38,38s17,38,38,38s38-17,38-38S233,42.6,212,42.6z M212,102.6c-12.1,0-22-9.8-22-22
			s9.9-22,22-22s22,9.8,22,22S224.1,102.6,212,102.6z"/>
	</g>
</g>
<g>
	<g>
		<path class="st0" d="M76,310.6c-46.9,0-76,24-76,62.9c0,4.4,3.6,8,8,8h136c4.4,0,8-3.6,8-8C152,334.6,122.9,310.6,76,310.6z
			 M16.6,365.4c5.3-35.9,46.2-38.9,59.4-38.9s54.2,3,59.4,38.9H16.6z"/>
	</g>
</g>
<g>
	<g>
		<path class="st0" d="M76,226.6c-21,0-38,17-38,38s17,38,38,38s38-17,38-38S97,226.6,76,226.6z M76,286.6c-12.2,0-22-9.9-22-22
			s9.8-22,22-22s22,9.9,22,22S88.2,286.6,76,286.6z"/>
	</g>
</g>
<g>
	<g>
		<path class="st0" d="M348,310.6c-46.9,0-76,24-76,62.9c0,4.4,3.6,8,8,8h136c4.4,0,8-3.6,8-8C424,334.6,394.9,310.6,348,310.6z
			 M288.6,365.4c5.3-35.9,46.2-38.9,59.4-38.9s54.2,3,59.4,38.9H288.6z"/>
	</g>
</g>
<g>
	<g>
		<path class="st0" d="M348,226.6c-21,0-38,17-38,38s17,38,38,38s38-17,38-38S369,226.6,348,226.6z M348,286.6c-12.1,0-22-9.9-22-22
			s9.9-22,22-22s22,9.9,22,22S360.1,286.6,348,286.6z"/>
	</g>
</g>
<g>
	<g>
		<path class="st0" d="M253.4,296.7L220,263.2V216c0-4.4-3.6-8-8-8s-8,3.6-8,8v47.2l-33.4,33.4c-3.2,3.1-3.2,8.2-0.1,11.4
			s8.2,3.2,11.4,0.1l30.1-30.2l30.1,30.2c3.4,2.9,8.4,2.5,11.3-0.9C255.9,304.1,255.9,299.7,253.4,296.7z"/>
	</g>
</g>
</svg>
