<?xml version="1.0" encoding="utf-8"?>
<!-- Generator: Adobe Illustrator 21.1.0, SVG Export Plug-In . SVG Version: 6.00 Build 0)  -->
<svg version="1.1" id="Layer_1" xmlns="http://www.w3.org/2000/svg" xmlns:xlink="http://www.w3.org/1999/xlink" x="0px" y="0px"
	 viewBox="0 0 512 512" style="enable-background:new 0 0 512 512;" xml:space="preserve">
<style type="text/css">
	.st0{fill:#0C397A;}
</style>
<path class="st0" d="M489.3,340.1h-53.9V25.7c0-8.7-7-15.7-15.7-15.7h-395C16,10,9,17,9,25.7v394.7c0,45,36.6,81.5,81.5,81.5h329.1
	l0,0l0,0c22.2,0,43.1-7.1,59-19.9c16.9-13.6,26.2-32.1,26.2-51.9v-74.5C505,347.1,497.9,340.1,489.3,340.1z M403.9,470.5H90.5
	c-27.6,0-50.1-22.5-50.1-50.1v-379h363.4v429.1H403.9z M473.5,430.2c0,18.1-16.1,33.5-38.1,38.5v-97.3h38.1V430.2z"/>
<path class="st0" d="M116.4,434.3H328c8.7,0,15.7-7,15.7-15.7s-7-15.7-15.7-15.7H116.4c-8.7,0-15.7,7-15.7,15.7
	C100.6,427.3,107.7,434.3,116.4,434.3z"/>
<path class="st0" d="M116.4,368.3H328c8.7,0,15.7-7,15.7-15.7s-7-15.7-15.7-15.7H116.4c-8.7,0-15.7,7-15.7,15.7
	C100.6,361.3,107.7,368.3,116.4,368.3z"/>
<g>
	<path class="st0" d="M236,219.8c0-5.8-1.4-10.3-4.3-13.6c-2.9-3.3-7.9-6.4-15-9.3c-7.2-2.9-13.8-5.9-19.8-8.9
		c-6.1-3-11.3-6.5-15.7-10.4s-7.7-8.5-10.1-13.7c-2.3-5.2-3.5-11.5-3.5-18.9c0-12.4,4.2-22.5,12.5-30.5s19.4-12.7,33.3-14V77.3h17.4
		v23.6c13.4,2,23.9,7.5,31.5,16.5s11.5,20.5,11.5,34.4h-37.1c0-7.6-1.5-13.4-4.4-17.5s-7.1-6.1-12.5-6.1c-4.8,0-8.6,1.5-11.2,4.6
		c-2.7,3-4,7.2-4,12.6c0,5.4,1.5,9.7,4.6,12.9s8,6.2,14.8,9.1c6.8,2.9,13.2,5.9,19.2,9s11.2,6.6,15.6,10.6
		c4.4,3.9,7.8,8.6,10.3,13.8c2.5,5.3,3.7,11.6,3.7,19c0,12.5-4,22.7-11.9,30.6c-7.9,7.9-18.7,12.5-32.4,13.8v22h-17.4v-22.1
		c-15.9-1.7-28.2-7.1-36.7-16.4c-8.5-9.2-12.8-21.4-12.8-36.6h36.9c0,8.3,1.8,14.7,5.5,19s8.9,6.5,15.7,6.5c5,0,8.9-1.5,11.7-4.4
		C234.5,229,236,225,236,219.8z"/>
</g>
</svg>
