<?xml version="1.0" encoding="utf-8"?>
<!-- Generator: Adobe Illustrator 21.1.0, SVG Export Plug-In . SVG Version: 6.00 Build 0)  -->
<svg version="1.1" id="Capa_1" xmlns="http://www.w3.org/2000/svg" xmlns:xlink="http://www.w3.org/1999/xlink" x="0px" y="0px"
	 viewBox="0 0 612 612" style="enable-background:new 0 0 612 612;" xml:space="preserve">
<style type="text/css">
	.st0{fill:#FFFFFF;}
</style>
<path class="st0" d="M290.1,191.7l-34,88c-1.2,3-3.8,5-6.8,5.3L75.5,301.3c-4.3,0.4-7.5,4.3-7.4,8.8l3.5,145.4
	c0.1,4,2.8,7.4,6.4,8.2l204.6,45.9c5,1.1,10.1,1.7,15.2,1.7v-43.1V193.3C297.9,181.3,294.4,180.6,290.1,191.7z M266.3,462.9
	l-76.8-13.2v-42.9h76.8V462.9z M232.7,264.1l-204.8,22c-6.3,0.7-10.8-6.2-8.2-12.3l54.5-124.3c1.1-2.5,3.3-4.3,5.9-4.8l225.1-44.1
	L239.3,259C238.1,261.8,235.6,263.8,232.7,264.1z M536.5,301.3L362.7,285c-3-0.3-5.6-2.3-6.8-5.3l-34-88c-4.3-11.1-7.8-10.4-7.8,1.6
	v274.8v43.1c5.1,0,10.2-0.5,15.2-1.7l204.6-45.9c3.7-0.8,6.3-4.2,6.4-8.2l3.5-145.4C544,305.5,540.8,301.7,536.5,301.3z M465,378.9
	l-9.6,0.3l-0.2,64.4c0,2.8-2.7,5.5-6.1,6.1l-15.7,2.4c-3.6,0.6-6.5-1.4-6.5-4.4L427,380l-11,0.3c-5.3,0.2-8.7-4.4-6-8.2l26.1-36.3
	c2.5-3.4,8.5-3.1,10.9,0.5l22.9,34.8C472.1,374.6,469.4,378.8,465,378.9z M584.1,286.1L379.2,264c-2.9-0.3-5.4-2.3-6.6-5.1
	l-65.9-158.3l225.1,44.1c2.6,0.5,4.8,2.3,5.9,4.8l54.5,124.3C595,280,590.4,286.8,584.1,286.1z"/>
</svg>
