<?xml version="1.0" encoding="utf-8"?>
<!-- Generator: Adobe Illustrator 21.1.0, SVG Export Plug-In . SVG Version: 6.00 Build 0)  -->
<svg version="1.1" id="Capa_1" xmlns="http://www.w3.org/2000/svg" xmlns:xlink="http://www.w3.org/1999/xlink" x="0px" y="0px"
	 viewBox="0 0 473.8 473.8" style="enable-background:new 0 0 473.8 473.8;" xml:space="preserve">
<style type="text/css">
	.st0{fill:#0C397A;}
</style>
<g>
	<path class="st0" d="M430.9,125.4c0-1.6-0.4-3.2-1.1-4.7c-1.4-3-4.2-5.1-7.2-5.7L241.3,27c-2.9-1.4-6.4-1.4-9.3,0L48.8,115.8
		c-3.6,1.7-5.9,5.3-6.1,9.3v0.1c0,0.1,0,0.2,0,0.4v222.7c0,4.1,2.3,7.8,6.1,9.6l183.1,88.8c0.1,0,0.1,0,0.2,0.1
		c0.3,0.1,0.5,0.2,0.8,0.4c0.1,0,0.2,0.1,0.4,0.1c0.3,0.1,0.5,0.2,0.8,0.3c0.1,0,0.2,0.1,0.3,0.1c0.3,0.1,0.6,0.1,0.9,0.2
		c0.1,0,0.2,0,0.3,0c0.4,0,0.8,0.1,1.2,0.1s0.8,0,1.2-0.1c0.1,0,0.2,0,0.3,0c0.3,0,0.6-0.1,0.9-0.2c0.1,0,0.2-0.1,0.3-0.1
		c0.3-0.1,0.5-0.2,0.8-0.3c0.1,0,0.2-0.1,0.4-0.1c0.3-0.1,0.5-0.2,0.8-0.4c0.1,0,0.1,0,0.2-0.1l183.7-89c3.7-1.8,6.1-5.5,6.1-9.6
		V125.7C430.9,125.6,430.9,125.5,430.9,125.4z M236.5,48.5l158.8,77l-58.5,28.4L178,76.9L236.5,48.5z M236.5,202.5l-158.8-77
		l75.8-36.8l158.8,77L236.5,202.5z M64.1,142.7l161.8,78.4v198.8L64.1,341.5V142.7z M247.2,419.9V221.1l75.9-36.9v52
		c0,5.9,4.8,10.7,10.7,10.7s10.7-4.8,10.7-10.7v-62.4l65-31.5v198.8L247.2,419.9z"/>
</g>
</svg>
