<?xml version="1.0" encoding="utf-8"?>
<!-- Generator: Adobe Illustrator 21.1.0, SVG Export Plug-In . SVG Version: 6.00 Build 0)  -->
<svg version="1.1" id="Layer_1" xmlns="http://www.w3.org/2000/svg" xmlns:xlink="http://www.w3.org/1999/xlink" x="0px" y="0px"
	 viewBox="0 0 512 512" style="enable-background:new 0 0 512 512;" xml:space="preserve">
<style type="text/css">
	.st0{fill:#0C397A;}
</style>
<g>
	<path class="st0" d="M470,25H36c-8.4,0-15.3,6.8-15.3,15.3V459c0,13.8,8.3,26.2,21,31.5c12.8,5.3,27.4,2.4,37.1-7.4
		c4.3-4.3,10-6.7,16.1-6.7s11.8,2.4,16.1,6.7c13.3,13.3,30.8,19.9,48.2,19.9s34.9-6.6,48.2-19.9c6-6,6-15.6,0-21.6s-15.6-6-21.6,0
		c-14.7,14.7-38.6,14.7-53.2,0c-20.8-20.8-54.6-20.8-75.4,0c-1.1,1.1-2.4,1.4-3.8,0.8s-2.2-1.7-2.2-3.3V142h403.5v317
		c0,1.6-0.7,2.7-2.2,3.3c-1.4,0.6-2.7,0.3-3.9-0.8c-20.8-20.8-54.6-20.8-75.4,0l-12.1,12.1c-6,6-6,15.6,0,21.6s15.6,6,21.6,0
		l12.1-12.1c4.3-4.3,10-6.7,16.1-6.7s11.8,2.4,16.1,6.7c9.8,9.8,24.4,12.7,37.1,7.4c12.8-5.3,21-17.7,21-31.5V40.3
		C485.3,31.8,478.4,25,470,25z M51.3,111.4V55.5h403.5v55.9H51.3L51.3,111.4z"/>
	<path class="st0" d="M301.8,310.9c-6.6-4.6-17.8-9.1-33.9-13.8V252c5.2,1.3,9,4.1,11.8,8.4c2.2,3.5,3.5,7.8,4,12.6
		c0.4,3.2,3,5.6,6.2,5.6h20.3c1.6,0,3.3-0.7,4.4-1.9c1.2-1.2,1.9-2.8,1.8-4.6c-0.4-14.7-5.4-26.9-14.9-36.2
		c-8.2-8-19.4-12.9-33.7-14.7v-9.6c0-3.5-2.8-6.2-6.2-6.2h-11.1c-3.5,0-6.2,2.8-6.2,6.2v9.6c-14.4,1.3-26.1,6.8-34.8,16.2
		c-9.7,10.5-14.6,22.7-14.6,36.2c0,15.1,4.8,27,14,35.6c8,7.4,19.8,12.9,35.4,16.5V377c-7.3-1.8-12.3-5.3-15.3-10.7
		c-1.5-2.8-3.6-8.8-4.3-20.7c-0.2-3.3-2.9-5.9-6.2-5.9H198c-3.5,0-6.2,2.8-6.2,6.2c0,14.7,2.5,26.1,7.4,34.9
		c8.4,15.2,23.6,24.1,45.3,26.7v14.7c0,3.5,2.8,6.2,6.2,6.2h11.1c3.5,0,6.2-2.8,6.2-6.2v-15c12.3-1.9,22.1-5.2,29.4-9.8
		c15.5-10,23.2-26.6,23.1-49.4C320.2,331.9,314,319.3,301.8,310.9z M228.2,272.3c0-5,1.8-9.8,5.3-14.6c2.2-2.9,5.9-5,10.7-6.1v39.7
		c-4.1-1.5-7.6-3.4-10.4-5.6C230,282.4,228.2,278.2,228.2,272.3z M267.9,331.9c5.9,2,9.1,3.7,10.9,5c5.5,4,8.1,9.4,8.1,17.1
		c0,5-1.1,9.4-3.2,13.3c-3,5.6-8.3,9.1-15.8,10.5V331.9L267.9,331.9L267.9,331.9z"/>
</g>
</svg>
