<?xml version="1.0" encoding="utf-8"?>
<!-- Generator: Adobe Illustrator 21.1.0, SVG Export Plug-In . SVG Version: 6.00 Build 0)  -->
<svg version="1.1" id="Layer_1" xmlns="http://www.w3.org/2000/svg" xmlns:xlink="http://www.w3.org/1999/xlink" x="0px" y="0px"
	 viewBox="0 0 512 512" style="enable-background:new 0 0 512 512;" xml:space="preserve">
<style type="text/css">
	.st0{fill:#FFFFFF;}
	.st1{fill:#FBD536;}
	.st2{fill:#0C397A;}
</style>
<polygon class="st0" points="83,251 83,25 502,25 502,443 131.5,443 91.7,487 20,386.7 5,326 23,284 55,256 "/>
<path class="st1" d="M504.5,15H81.9c-4.2,0-7.5,3.4-7.5,7.5v147.7c0,4.2,3.4,7.5,7.5,7.5s7.5-3.4,7.5-7.5v-40.9H161
	c4.2,0,7.5-3.4,7.5-7.5V67.2c0-4.2-3.4-7.5-7.5-7.5H89.4V30h146.4v128.4c0,2.6,1.4,5,3.6,6.4c1.2,0.7,2.6,1.1,3.9,1.1
	c1.2,0,2.4-0.3,3.4-0.8l47.4-24.3l45.5,24.2c2.3,1.2,5.1,1.2,7.4-0.2s3.6-3.8,3.6-6.4V30H497v407.5H140.7
	c21.4-31.7,42.7-71.3,42.7-103.3c0-50.6-41.1-91.7-91.7-91.7c-0.8,0-1.5,0-2.3,0v-41.8c0-4.2-3.4-7.5-7.5-7.5
	c-4.2,0-7.5,3.4-7.5,7.5v43.4C32.1,252.3,0,289.6,0,334.2c0,59.1,82.5,155.2,86,159.3c1.4,1.6,3.5,2.6,5.6,2.6h0.1
	c2.1,0,4.2-0.9,5.6-2.5s16.1-17.9,32.9-41h374.3c4.1,0,7.5-3.4,7.5-7.5V22.5C512,18.4,508.6,15,504.5,15z M153.5,74.7v39.5H89.4
	V74.7H153.5z M335.6,145.9l-37.9-20.2c-2.2-1.2-4.8-1.2-7-0.1L250.8,146V30h84.7v115.9H335.6z M91.8,477
	C73.3,454.3,15,379.4,15,334.2c0-42.3,34.4-76.7,76.7-76.7s76.7,34.4,76.7,76.7C168.4,382.6,110.4,455,91.8,477z"/>
<path class="st2" d="M90.7,291.2c-22.5,0-40.8,18.3-40.8,40.8s18.3,40.8,40.8,40.8s40.8-18.3,40.8-40.8S113.2,291.2,90.7,291.2z
	 M90.7,357.8c-14.2,0-25.8-11.6-25.8-25.8s11.6-25.8,25.8-25.8s25.8,11.6,25.8,25.8S104.9,357.8,90.7,357.8z"/>
<path class="st2" d="M469.6,292.5H254.1c-4.2,0-7.5,3.4-7.5,7.5s3.4,7.5,7.5,7.5h215.5c4.2,0,7.5-3.4,7.5-7.5
	C477.1,295.8,473.7,292.5,469.6,292.5z"/>
<path class="st2" d="M469.6,340.6H320.9c-4.1,0-7.5,3.4-7.5,7.5s3.4,7.5,7.5,7.5h148.7c4.2,0,7.5-3.4,7.5-7.5
	C477.1,343.9,473.7,340.6,469.6,340.6z"/>
<path class="st2" d="M469.6,386.7H270.1c-4.2,0-7.5,3.4-7.5,7.5s3.4,7.5,7.5,7.5h199.5c4.2,0,7.5-3.4,7.5-7.5
	C477.1,390,473.7,386.7,469.6,386.7z"/>
<path class="st2" d="M140.7,438.1c21.4-31.7,42.7-71.3,42.7-103.3c0-50.6-41.1-91.7-91.7-91.7c-0.8,0-1.5,0-2.3,0l-15,1.6
	C32.1,252.8,0,290.1,0,334.8C0,393.9,82.5,490,86,494.1c1.4,1.6,3.5,2.6,5.6,2.6h0.1c2.1,0,4.2-0.9,5.6-2.5s16.1-17.9,32.9-41
	L140.7,438.1z M91.8,477.5C73.3,454.9,15,380,15,334.8c0-42.3,34.4-76.7,76.7-76.7s76.7,34.4,76.7,76.7
	C168.4,383.2,110.4,455.5,91.8,477.5z"/>
</svg>
