<?xml version="1.0" encoding="utf-8"?>
<!-- Generator: Adobe Illustrator 21.1.0, SVG Export Plug-In . SVG Version: 6.00 Build 0)  -->
<svg version="1.1" id="Capa_1" xmlns="http://www.w3.org/2000/svg" xmlns:xlink="http://www.w3.org/1999/xlink" x="0px" y="0px"
	 viewBox="0 0 480 480" style="enable-background:new 0 0 480 480;" xml:space="preserve">
<style type="text/css">
	.st0{fill:#0C397A;}
</style>
<g>
	<g>
		<path class="st0" d="M373.7,174.8c-0.1-0.4-0.3-0.7-0.5-1.1c-0.2-0.6-0.5-1.2-0.7-1.8c-0.3-0.4-0.5-0.8-0.8-1.1
			c-0.3-0.5-0.7-0.9-1.1-1.4c-0.4-0.3-0.7-0.6-1.1-0.9c-0.4-0.4-0.8-0.7-1.2-1l-122-73.2c-3.9-2.3-8.7-2.3-12.6,0l-121.9,73.2
			c-0.5,0.3-0.9,0.6-1.3,1c-0.4,0.3-0.8,0.6-1.1,0.9c-0.4,0.4-0.7,0.9-1,1.4c-0.3,0.4-0.6,0.7-0.9,1.1c-0.3,0.6-0.5,1.1-0.7,1.7
			c-0.2,0.4-0.3,0.8-0.5,1.2c-0.3,1-0.4,2.1-0.4,3.2v121.9c0,4.3,2.2,8.2,5.9,10.4l121.9,73.2l0.1,0.1l0.1,0.1
			c0.6,0.3,1.3,0.6,2,0.8c0.3,0.1,0.5,0.3,0.8,0.3c2.1,0.6,4.3,0.6,6.3,0c0.3-0.1,0.6-0.2,0.8-0.3c0.7-0.2,1.4-0.5,2-0.8l0.1-0.1
			l0.1-0.1l121.9-73.2c3.7-2.2,5.9-6.2,5.9-10.4v-122C374.1,176.9,374,175.8,373.7,174.8z M240,119l37.3,22.4L179,200.3l-37.3-22.4
			L240,119z M227.8,351.5L130.3,293v-93.5l97.5,58.5V351.5z M240,236.9l-37.3-22.4l98.2-58.9l37.3,22.4L240,236.9z M349.7,293
			l-97.5,58.5V258l97.5-58.5V293z"/>
	</g>
</g>
<g>
	<g>
		<path class="st0" d="M246.4,5.1c-2.9-3.5-8.1-4-11.7-1.1c-0.4,0.3-0.8,0.7-1.1,1.1l-24,32l12.8,9.6l9.6-12.8v64h16v-64l9.6,12.8
			l12.8-9.6L246.4,5.1z"/>
	</g>
</g>
<g>
	<g>
		<path class="st0" d="M257.6,433.1l-9.6,12.8v-64h-16v64l-9.6-12.8l-12.8,9.6l24,32c2.7,3.5,7.7,4.3,11.2,1.6
			c0.6-0.5,1.1-1,1.6-1.6l24-32L257.6,433.1z"/>
	</g>
</g>
<g>
	<g>
		<rect x="232" y="350.9" class="st0" width="16" height="16"/>
	</g>
</g>
<g>
	<g>
		<path class="st0" d="M98,230.9H34l12.8-9.6l-9.6-12.8l-32,24c-3.5,2.7-4.3,7.7-1.6,11.2c0.5,0.6,1,1.1,1.6,1.6l32,24l9.6-12.8
			L34,246.9h64V230.9z"/>
	</g>
</g>
<g>
	<g>
		<path class="st0" d="M476.4,234.1c-0.5-0.6-1-1.1-1.6-1.6l-32-24l-9.6,12.8l12.8,9.6h-64v16h64l-12.8,9.6l9.6,12.8l32-24
			C478.3,242.7,479.1,237.6,476.4,234.1z"/>
	</g>
</g>
<g>
	<g>
		<rect x="112" y="230.9" class="st0" width="16" height="16"/>
	</g>
</g>
<g>
	<g>
		<rect x="352" y="230.9" class="st0" width="16" height="16"/>
	</g>
</g>
<g>
	<g>
		<path class="st0" d="M143.8,131.4L98.6,86.2l15.8,2.3l2.3-15.8L77.1,67c-4.4-0.6-8.4,2.4-9.1,6.7c-0.1,0.8-0.1,1.6,0,2.3l5.7,39.6
			l15.8-2.3l-2.3-15.8l45.2,45.2L143.8,131.4z"/>
	</g>
</g>
<g>
	<g>
		<path class="st0" d="M412,401.8l-5.7-39.6l-15.9,2.3l2.3,15.8l-45.2-45.2l-11.3,11.3l45.2,45.2l-15.8-2.3l-2.3,15.8l39.6,5.7
			c0.4,0.1,0.8,0.1,1.1,0.1c4.4,0,8-3.6,8-8C412.1,402.6,412,402.2,412,401.8z"/>
	</g>
</g>
<g>
	<g>
		
			<rect x="147.1" y="146.1" transform="matrix(0.7071 -0.7071 0.7071 0.7071 -63.5637 154.812)" class="st0" width="16" height="16"/>
	</g>
</g>
<g>
	<g>
		
			<rect x="316.9" y="315.8" transform="matrix(0.7071 -0.7071 0.7071 0.7071 -133.789 324.5972)" class="st0" width="16" height="16"/>
	</g>
</g>
<g>
	<g>
		<path class="st0" d="M98.6,391.6l45.2-45.2l-11.3-11.3l-45.2,45.2l2.3-15.8l-15.8-2.3L68,401.8c-0.6,4.4,2.4,8.4,6.8,9.1
			c0.4,0.1,0.8,0.1,1.1,0.1c0.4,0,0.8,0,1.1-0.1l39.6-5.7l-2.3-15.8L98.6,391.6z"/>
	</g>
</g>
<g>
	<g>
		<path class="st0" d="M409.7,69.2c-1.8-1.8-4.3-2.6-6.8-2.3l-39.6,5.7l2.3,15.8l15.8-2.3l-45.2,45.2l11.3,11.3l45.2-45.2l-2.3,15.8
			l15.8,2.3L412,76C412.3,73.5,411.5,71,409.7,69.2z"/>
	</g>
</g>
<g>
	<g>
		
			<rect x="147.2" y="315.8" transform="matrix(0.7071 -0.7071 0.7071 0.7071 -183.4897 204.6001)" class="st0" width="16" height="16"/>
	</g>
</g>
<g>
	<g>
		
			<rect x="316.9" y="146" transform="matrix(0.7071 -0.7071 0.7071 0.7071 -13.7116 274.8335)" class="st0" width="16" height="16"/>
	</g>
</g>
</svg>
