<?xml version="1.0" encoding="utf-8"?>
<!-- Generator: Adobe Illustrator 21.1.0, SVG Export Plug-In . SVG Version: 6.00 Build 0)  -->
<svg version="1.1" id="Capa_1" xmlns="http://www.w3.org/2000/svg" xmlns:xlink="http://www.w3.org/1999/xlink" x="0px" y="0px"
	 viewBox="0 0 536.1 536.1" style="enable-background:new 0 0 536.1 536.1;" xml:space="preserve">
<style type="text/css">
	.st0{fill:#FFFFFF;}
</style>
<g>
	<path class="st0" d="M153.5,100.4c0-36,29.2-65.1,65.1-65.1c36,0,65.1,29.2,65.1,65.1s-29.2,65.1-65.1,65.1
		C182.6,165.5,153.5,136.3,153.5,100.4z M249.9,209.8c0.7-14.2,5.5-27.3,13.4-38.1c-5.5-1.2-11.2-1.8-17.1-1.8H191
		c-5.8,0-11.5,0.6-17,1.7c8.4,11.6,13.4,25.7,13.4,41.1c10.2-5.6,21.8-8.8,34.2-8.8C231.6,204,241.2,206.1,249.9,209.8z
		 M260.9,215.7c18.9,11.9,32.2,31.9,34.6,55.2c7.7,3.6,16.3,5.7,25.3,5.7c33.1,0,60-26.9,60-60s-26.9-60-60-60
		C288,156.6,261.4,183,260.9,215.7z M221.6,338.5c33.1,0,60-26.9,60-60s-26.9-60-60-60s-60,26.9-60,60S188.5,338.5,221.6,338.5z
		 M247,342.6h-50.9c-42.4,0-76.8,34.5-76.8,76.8v62.3l0.2,1l4.3,1.3c40.4,12.6,75.5,16.8,104.4,16.8c56.4,0,89.2-16.1,91.2-17.1l4-2
		h0.4v-62.3C323.8,377,289.4,342.6,247,342.6z M346.3,280.7h-50.5c-0.5,20.2-9.2,38.4-22.8,51.5c37.6,11.2,65.2,46.1,65.2,87.3v19.2
		c49.9-1.8,78.6-16,80.5-16.9l4-2h0.4v-62.3C423.1,315.1,388.6,280.7,346.3,280.7z M359.8,155.3c18.9,11.9,32.2,31.9,34.6,55.2
		c7.7,3.6,16.3,5.7,25.3,5.7c33.1,0,60-26.9,60-60s-26.9-60-60-60C386.9,96.2,360.3,122.6,359.8,155.3z M445.2,220.3h-50.5
		c-0.5,20.2-9.2,38.4-22.8,51.5c37.6,11.2,65.2,46.1,65.2,87.3v19.2c49.9-1.8,78.6-16,80.5-16.9l4-2h0.4v-62.3
		C522,254.8,487.5,220.3,445.2,220.3z M116.3,276.6c11.7,0,22.6-3.4,31.9-9.3c2.9-19.2,13.2-35.9,27.9-47.4c0.1-1.1,0.2-2.2,0.2-3.4
		c0-33.1-26.9-60-60-60s-60,26.9-60,60C56.3,249.7,83.2,276.6,116.3,276.6z M170.2,332.2c-13.6-13-22.2-31.1-22.8-51.2
		c-1.9-0.1-3.7-0.3-5.6-0.3H90.9c-42.4,0-76.8,34.5-76.8,76.8v62.3l0.2,1l4.3,1.3c32.4,10.1,61.4,14.8,86.5,16.3v-18.8
		C105,378.3,132.6,343.4,170.2,332.2z"/>
</g>
</svg>
